{"glyphs":{"0":{"ha":872,"x_min":5,"x_max":807,"o":"m 807 458 q 705 787 807 654 q 404 935 593 935 q 104 785 215 935 q 5 454 5 648 q 107 125 5 258 q 408 -22 220 -22 q 708 129 597 -22 q 807 458 807 264 m 406 901 q 619 745 545 901 q 677 463 677 621 q 624 176 677 301 q 408 12 550 12 q 193 170 268 12 q 135 450 135 292 q 191 737 135 611 q 406 901 262 901 "},"1":{"ha":481,"x_min":75,"x_max":298,"o":"m 298 0 q 271 132 277 26 q 271 275 271 150 q 275 579 271 307 q 277 694 277 640 q 272 884 277 804 q 239 936 269 936 q 154 893 212 936 q 75 831 115 863 q 118 835 100 835 q 167 808 167 835 l 167 119 q 140 0 167 29 l 298 0 "},"2":{"ha":736,"x_min":-11,"x_max":675,"o":"m -11 0 q 117 3 26 0 q 249 5 203 5 q 587 -58 464 5 l 589 -58 q 675 140 603 32 q 587 97 671 139 q 486 77 546 77 l 146 77 q 452 358 323 207 q 624 720 624 561 q 553 884 624 827 q 378 936 488 936 q 170 884 264 936 q 28 724 62 825 q 125 734 89 734 q 235 720 171 734 q 174 817 174 772 q 216 880 174 860 q 296 896 249 896 q 458 829 392 896 q 524 665 524 762 q 322 293 524 511 q -11 0 182 140 "},"3":{"ha":699,"x_min":17,"x_max":631,"o":"m 231 734 q 187 835 187 796 q 278 900 187 900 q 404 867 350 900 q 467 760 467 828 q 410 607 467 671 q 265 530 353 543 q 440 435 376 519 q 501 239 501 354 q 449 87 501 160 q 313 9 390 9 q 214 45 250 9 q 180 127 180 77 q 180 139 180 134 l 180 153 q 21 92 109 107 l 17 89 q 142 16 21 50 q 301 -14 244 -14 q 528 53 436 -14 q 631 256 631 126 q 555 437 631 350 q 390 550 486 517 q 530 623 492 591 q 596 760 596 675 q 505 897 596 850 q 330 936 432 936 q 155 897 236 936 q 25 778 68 856 q 231 734 134 775 "},"4":{"ha":839,"x_min":32,"x_max":799,"o":"m 52 889 q 144 828 129 847 q 171 718 171 798 q 132 513 171 619 q 32 323 94 404 l 489 323 q 490 257 489 302 q 492 191 492 212 q 463 0 492 33 l 619 0 q 593 182 593 32 l 595 323 l 684 323 l 799 375 l 595 375 l 595 800 q 610 879 595 827 q 625 957 625 932 l 623 961 q 589 940 600 950 q 412 854 511 879 l 410 852 q 460 810 412 848 q 489 745 489 785 l 489 375 l 151 375 q 250 635 212 475 q 285 901 285 779 q 285 909 285 905 l 285 933 l 275 945 q 204 918 231 930 q 122 911 164 916 q 52 889 62 907 "},"5":{"ha":710,"x_min":9,"x_max":629,"o":"m 140 171 q 14 94 103 113 l 9 90 q 142 11 28 45 q 304 -14 235 -14 q 539 77 450 -14 q 629 311 629 165 q 530 536 629 457 q 290 608 440 608 q 157 591 224 608 l 157 878 l 281 879 q 414 865 376 879 q 519 775 457 847 q 612 926 533 868 l 46 926 l 46 511 q 290 572 174 572 q 464 494 403 572 q 522 310 522 424 q 475 111 522 195 q 310 9 416 9 q 195 56 233 9 q 140 171 165 87 "},"6":{"ha":724,"x_min":25,"x_max":644,"o":"m 644 926 l 486 926 q 146 761 277 926 q 25 395 25 610 q 94 119 25 233 q 330 -16 178 -16 q 538 90 449 -16 q 623 313 623 192 q 554 475 623 411 q 387 538 488 538 q 231 460 256 538 q 363 503 309 503 q 475 437 431 503 q 517 310 517 380 q 473 121 517 211 q 336 8 422 8 q 187 172 236 8 q 154 418 154 285 q 191 701 154 587 q 376 876 244 876 q 541 775 465 876 q 644 926 558 869 "},"7":{"ha":665,"x_min":4,"x_max":665,"o":"m 189 -40 l 343 1 q 343 62 343 33 q 412 533 343 319 q 522 742 446 635 q 665 928 593 835 q 566 925 643 928 q 439 922 488 922 q 98 1011 164 922 q 4 800 93 928 q 257 878 74 878 l 553 878 q 292 452 376 686 q 189 -40 220 257 "},"8":{"ha":734,"x_min":28,"x_max":675,"o":"m 28 237 q 132 43 28 117 q 351 -24 225 -24 q 575 45 484 -24 q 675 248 675 119 q 610 415 675 343 q 450 505 546 485 q 574 583 528 522 q 615 724 615 643 q 530 884 615 822 q 353 936 456 936 q 167 879 240 936 q 87 707 87 815 q 136 579 87 636 q 253 505 183 521 q 90 411 153 485 q 28 237 28 339 m 351 913 q 475 854 433 913 q 511 717 511 803 q 473 579 511 633 q 351 518 432 518 q 229 579 272 518 q 193 718 193 633 q 229 854 193 803 q 351 913 269 913 m 351 492 q 501 415 449 492 q 546 248 546 349 q 501 81 546 144 q 353 5 450 5 q 203 81 254 5 q 158 249 158 146 q 203 415 158 350 q 351 492 254 492 "},"9":{"ha":724,"x_min":9,"x_max":629,"o":"m 9 0 l 170 0 q 510 164 379 0 q 629 532 629 317 q 559 807 629 693 q 325 940 476 940 q 117 836 205 940 q 33 614 33 734 q 102 452 33 515 q 268 389 168 389 q 425 467 400 389 q 293 424 347 424 q 179 489 225 424 q 139 616 139 546 q 180 806 139 715 q 319 917 233 917 q 467 754 419 917 q 500 509 500 640 q 465 225 500 338 q 279 50 410 50 q 115 151 189 50 q 9 0 96 57 "},"A":{"ha":856,"x_min":4,"x_max":832,"o":"m 17 7 l 147 8 q 152 27 150 15 q 155 45 154 39 q 180 153 162 89 q 201 229 199 218 q 232 352 216 297 q 272 478 248 407 q 279 508 275 495 q 292 544 283 522 q 307 587 300 566 l 311 587 l 393 393 l 428 449 l 425 458 l 421 458 l 424 467 q 390 551 405 511 q 366 631 375 592 q 357 707 357 669 q 406 848 357 781 q 414 862 411 857 q 423 880 417 867 q 433 899 429 892 q 450 880 443 893 q 467 847 456 866 q 528 652 489 799 q 508 602 515 621 q 501 561 501 582 q 522 501 501 529 l 525 501 l 553 547 l 557 547 l 602 385 q 681 5 654 191 q 682 4 682 5 q 684 1 683 3 l 832 3 q 783 165 813 68 q 716 374 752 262 q 658 565 681 486 q 615 732 635 644 q 604 787 610 754 q 591 845 597 820 q 579 890 585 869 q 576 939 576 907 q 581 943 576 941 q 618 904 612 913 q 682 804 646 869 q 697 783 688 792 l 663 1050 q 633 1053 653 1053 l 576 1053 l 554 1053 l 467 1053 l 204 1061 q 181 997 191 1031 q 161 922 171 962 q 144 857 152 882 q 138 829 142 844 q 134 807 134 814 q 265 930 204 892 q 288 946 269 935 l 296 946 q 278 848 295 905 q 244 739 260 791 q 228 690 241 730 q 208 629 216 651 q 167 467 185 525 q 144 395 159 440 q 117 311 129 350 q 77 192 96 241 q 45 108 66 158 q 4 11 24 58 l 17 7 m 200 8 l 342 7 q 379 71 357 27 q 414 131 402 114 q 431 160 416 136 q 449 196 446 184 q 431 241 438 231 q 395 189 409 214 q 355 115 380 163 q 311 43 330 68 q 298 40 303 40 q 289 41 296 40 q 279 44 283 43 q 272 45 275 45 q 295 101 275 68 q 330 161 315 135 q 346 220 345 187 q 338 237 342 225 q 332 253 335 249 q 304 208 323 243 q 273 158 285 174 q 243 101 256 125 q 222 61 231 77 q 196 14 214 45 q 197 8 196 11 l 200 8 m 453 4 l 581 7 q 585 22 585 8 q 544 134 564 78 q 502 244 523 189 q 461 357 481 300 q 428 298 438 331 q 475 173 443 256 q 518 46 507 90 q 505 42 513 42 q 486 40 498 41 l 441 147 q 434 143 437 147 q 428 134 431 138 q 415 100 415 119 q 427 59 415 85 q 440 25 438 33 q 445 14 442 20 q 452 4 447 7 l 453 4 m 378 182 q 400 233 400 206 q 374 320 400 262 q 346 404 348 378 q 355 428 355 414 q 352 445 355 436 q 345 465 349 454 q 339 482 341 475 l 336 482 q 329 468 334 479 q 319 450 324 457 q 296 395 296 425 q 309 345 296 365 q 343 261 323 317 q 375 180 364 204 q 376 181 376 181 q 378 182 377 182 m 403 283 l 473 411 l 453 469 q 422 421 439 449 q 395 378 405 394 q 385 360 393 372 q 376 342 376 349 q 387 314 379 335 q 403 283 395 293 m 504 292 l 553 375 q 439 660 528 460 q 416 622 432 645 q 395 590 399 599 q 397 572 395 577 q 405 551 399 566 q 411 530 410 536 q 412 530 412 530 q 414 529 412 530 l 429 550 q 449 511 438 538 q 464 478 460 484 q 480 423 466 462 q 494 358 494 384 q 489 340 489 351 q 495 313 489 331 q 503 292 502 296 l 504 292 "},"B":{"ha":774,"x_min":17,"x_max":753,"o":"m 192 4 q 358 6 222 5 q 555 12 494 8 q 701 126 656 47 q 749 264 739 203 q 753 313 753 290 q 743 411 751 344 q 671 558 720 498 q 634 521 658 548 q 606 489 611 494 q 603 485 603 488 q 621 359 621 424 q 612 289 618 324 q 481 109 592 172 q 338 77 422 77 q 316 189 322 129 q 307 338 310 249 q 301 472 304 428 l 301 497 q 278 501 281 501 q 236 497 266 501 q 199 492 207 492 q 196 446 196 476 q 197 406 196 431 q 199 354 198 380 q 200 314 200 328 l 200 249 q 195 138 199 189 q 186 7 191 87 l 192 4 m 452 176 l 456 176 q 471 191 465 184 q 487 213 477 198 q 503 233 498 227 q 538 385 536 317 q 522 486 538 439 q 492 528 511 509 q 449 554 473 547 q 440 557 443 555 q 432 559 437 558 q 427 558 427 559 l 425 505 q 464 462 454 475 q 476 425 473 450 q 456 330 476 357 q 447 326 455 330 q 436 340 439 332 q 428 365 432 349 q 421 385 423 380 l 375 380 q 372 374 372 375 q 374 366 372 374 q 376 351 376 357 q 447 180 401 254 q 450 178 451 178 q 451 177 451 178 q 452 176 452 177 m 326 387 q 461 425 394 387 q 464 429 463 429 l 453 458 q 436 467 448 467 q 384 445 412 452 q 321 433 355 438 l 323 389 q 325 389 324 389 q 326 387 325 389 m 175 392 q 180 393 178 392 l 178 452 q 153 479 157 462 q 151 486 151 482 q 160 495 154 491 q 175 502 165 499 q 189 505 184 504 q 339 519 248 517 l 343 561 q 307 562 340 562 q 207 557 275 559 q 100 552 139 555 q 22 539 62 549 q 25 521 22 530 q 33 505 28 513 q 39 492 37 497 q 98 434 64 457 q 175 392 131 412 m 361 454 l 411 467 l 411 533 q 408 567 409 545 q 404 597 408 589 l 355 585 l 359 456 q 360 455 360 456 q 361 454 361 455 m 546 467 q 616 530 583 496 q 673 599 650 564 q 710 679 696 633 q 726 779 725 724 q 672 936 722 867 q 629 983 665 947 q 460 1055 577 1029 q 345 1069 416 1067 q 134 1050 254 1069 q 150 972 150 993 q 157 941 155 959 q 163 909 160 924 q 168 873 165 895 q 172 819 170 850 q 176 772 174 787 q 178 772 177 772 q 179 770 178 771 q 306 800 237 794 q 311 808 309 800 q 313 859 312 831 q 316 906 314 886 q 321 950 317 926 q 332 997 326 974 q 339 1002 338 1001 q 376 1003 351 1003 q 463 986 422 1003 q 528 939 503 969 q 539 921 535 929 q 549 904 543 913 q 576 819 566 875 q 583 652 583 762 q 536 539 583 597 q 521 522 523 528 l 545 467 l 546 467 m 200 568 l 302 572 l 307 721 q 293 724 302 724 q 258 717 281 724 q 232 710 235 711 q 208 698 224 703 q 184 689 191 692 l 192 572 l 200 568 m 26 575 l 171 585 q 176 604 176 592 q 175 619 176 609 q 174 633 174 629 l 131 639 q 122 648 123 642 q 133 668 124 659 q 154 685 142 677 q 180 701 165 692 q 343 737 252 737 l 350 783 q 321 787 336 787 q 291 785 310 787 q 253 778 273 782 q 222 772 233 774 q 98 709 153 753 q 20 606 43 665 q 17 581 17 597 q 26 575 20 575 m 543 582 q 562 616 553 591 q 572 644 570 640 l 572 654 q 440 755 513 721 l 431 704 l 435 696 q 485 650 469 666 q 509 625 500 639 q 533 585 519 610 q 541 581 534 584 q 542 582 541 581 q 543 582 543 582 m 329 595 q 363 600 332 595 q 406 610 393 605 q 418 613 412 610 q 433 618 424 615 q 450 626 436 620 q 469 636 464 632 q 453 659 469 646 q 436 672 442 671 l 325 637 l 326 595 l 329 595 m 358 661 l 411 679 q 427 785 413 729 q 431 799 428 788 q 449 807 439 807 q 458 793 455 802 q 463 777 461 785 q 465 757 464 770 l 518 722 q 520 723 519 722 q 521 725 521 723 q 518 793 521 770 q 400 956 486 913 q 397 954 397 956 q 368 826 376 893 q 355 661 359 760 l 358 661 "},"C":{"ha":639,"x_min":21,"x_max":625,"o":"m 338 0 q 453 8 414 0 q 555 69 500 21 q 576 178 576 106 q 576 208 576 195 q 577 243 576 222 q 578 275 577 265 q 575 279 574 279 q 486 111 548 166 q 429 70 463 86 q 358 54 395 54 q 330 57 351 54 q 250 92 286 64 q 182 163 214 121 q 141 249 155 210 q 126 336 126 288 l 122 336 q 117 418 117 389 q 123 482 117 456 q 143 505 134 494 q 158 522 153 515 q 225 591 182 550 q 241 610 231 598 q 257 628 252 621 l 235 647 q 212 633 224 647 q 193 615 199 619 q 150 572 174 595 q 114 536 127 548 q 21 450 100 524 q 54 241 21 335 q 146 86 86 147 q 180 56 153 77 q 187 50 184 52 q 301 3 229 20 q 338 0 312 3 m 387 117 q 467 147 441 117 q 510 268 510 199 q 507 286 510 274 q 504 304 505 298 q 471 367 495 339 q 410 425 447 394 q 398 434 408 426 q 383 444 388 441 q 359 424 366 439 l 383 400 q 472 257 472 327 q 467 222 472 239 q 414 155 448 168 q 400 153 404 155 l 383 158 q 371 148 376 157 q 361 135 365 138 l 361 131 l 387 117 m 281 118 q 350 147 330 118 q 393 248 393 193 q 378 313 393 284 q 377 314 378 313 q 375 314 377 314 q 350 286 359 310 q 354 256 354 272 q 329 175 354 211 q 319 165 321 170 q 293 158 304 158 q 272 163 283 158 q 227 281 227 188 q 261 358 241 336 l 239 387 q 221 370 229 382 q 208 343 214 359 q 197 318 201 327 q 189 261 189 290 q 198 206 189 234 q 225 155 207 178 q 236 143 229 149 q 250 134 242 138 q 269 122 258 129 q 281 118 279 119 m 317 183 q 335 224 335 197 q 333 245 335 233 q 332 265 332 258 q 353 309 332 294 q 380 339 365 323 q 403 366 395 356 l 380 386 l 317 332 q 293 261 293 307 q 304 205 293 232 q 309 194 307 201 q 314 183 312 186 l 317 183 m 306 338 l 329 358 l 232 464 q 233 466 233 465 q 233 469 233 467 l 257 492 l 236 513 q 215 495 224 503 q 199 478 206 487 q 187 461 191 470 q 214 428 199 444 q 250 392 229 413 q 277 364 260 382 q 302 338 294 346 l 306 338 m 309 406 l 311 406 l 401 489 l 380 515 q 309 456 331 484 q 296 443 305 450 q 285 432 288 436 l 292 419 l 309 406 m 447 410 l 501 461 q 456 508 490 479 q 414 546 422 538 q 396 562 408 552 q 378 581 385 572 l 374 581 l 353 562 q 401 513 365 544 q 450 461 438 481 l 425 432 l 444 410 l 447 410 m 306 476 l 323 494 l 323 498 l 239 582 l 235 582 l 210 557 q 238 531 222 544 q 271 504 254 518 q 297 481 288 490 q 301 478 299 480 q 306 476 303 476 m 306 538 l 392 624 l 372 644 q 343 621 359 637 q 323 602 326 604 q 303 580 317 593 q 283 558 289 568 l 302 538 l 306 538 m 449 536 l 450 536 q 474 557 460 543 q 493 575 487 571 q 503 591 502 590 q 463 633 482 615 q 427 666 444 651 q 364 721 410 680 l 342 694 l 453 587 l 429 561 q 436 548 429 554 q 447 536 444 541 l 449 536 m 158 602 l 184 628 q 135 764 138 667 q 136 810 135 794 q 212 964 149 920 q 370 1014 273 1014 q 427 992 403 1011 q 482 935 450 972 q 536 794 522 876 q 541 753 541 774 q 585 800 551 762 q 606 825 587 804 q 625 860 625 846 q 592 934 616 901 q 530 1007 569 967 q 326 1074 452 1074 q 302 1071 317 1072 q 274 1068 288 1069 q 250 1065 260 1067 q 210 1050 228 1059 q 180 1031 193 1041 q 154 1011 167 1022 q 117 978 142 1000 q 32 779 51 892 q 28 705 28 754 l 107 642 l 158 602 m 309 602 l 328 619 l 328 624 q 298 652 318 634 q 267 686 278 670 q 237 722 251 699 q 216 804 216 755 q 220 847 216 813 q 262 911 230 888 q 275 916 268 916 q 287 914 279 916 q 297 913 294 913 l 317 943 q 269 953 306 953 q 221 921 239 945 q 189 861 202 898 q 182 802 182 828 q 193 739 182 764 q 216 692 201 713 q 253 650 231 671 q 296 610 275 629 l 309 602 m 294 673 q 325 696 311 682 q 352 730 338 709 q 374 761 367 751 q 387 811 387 783 q 371 882 387 847 q 368 886 368 886 l 364 886 q 350 873 357 880 q 343 856 343 865 q 351 815 351 834 q 336 765 351 787 q 309 727 330 749 q 281 696 288 706 l 293 675 q 294 674 294 675 q 294 673 294 674 m 440 676 q 493 762 479 706 q 486 848 493 819 q 469 895 479 879 q 400 953 437 949 q 313 905 351 953 q 282 802 282 861 q 285 770 282 791 q 289 754 288 760 q 292 744 290 748 q 297 733 293 740 l 319 753 q 329 852 323 819 q 364 908 336 886 q 386 916 375 916 q 406 909 396 916 q 439 876 428 897 q 458 823 450 854 q 456 768 458 791 q 446 730 454 746 q 418 696 443 726 q 427 685 418 690 q 439 676 436 680 l 440 676 "},"D":{"ha":765,"x_min":17,"x_max":749,"o":"m 25 8 l 267 8 q 354 7 297 7 q 419 9 366 8 q 505 15 472 9 q 564 39 538 21 q 673 146 621 68 q 730 275 715 203 q 749 435 749 353 q 717 493 741 471 q 650 544 693 515 q 587 591 606 572 l 554 558 q 599 509 587 525 q 611 463 611 494 q 615 355 615 410 q 547 126 612 205 q 393 65 502 65 q 363 68 372 65 q 279 86 304 75 q 232 109 247 100 q 207 139 216 119 q 205 196 205 172 q 204 236 205 220 q 205 390 205 292 q 205 585 205 488 q 206 737 205 682 q 208 903 207 793 q 235 1010 210 980 q 284 1026 257 1023 q 350 1029 311 1029 q 378 1024 369 1025 q 407 1018 388 1022 q 461 1000 421 1018 q 571 860 532 959 q 591 733 591 783 q 575 660 591 692 q 545 631 562 645 q 511 602 528 617 q 482 572 494 587 l 488 562 l 498 550 q 504 547 504 547 q 551 583 521 555 q 595 618 582 610 q 650 658 621 637 q 696 690 680 679 q 726 718 720 709 q 669 903 723 798 q 636 957 656 930 q 515 1047 598 1017 q 481 1059 497 1053 q 409 1073 447 1069 q 334 1078 370 1076 q 208 1076 290 1076 l 71 1076 q 24 1080 30 1078 q 24 1080 24 1080 q 22 1078 24 1079 q 46 1013 41 1050 q 52 920 52 975 l 52 545 l 52 300 q 51 230 52 256 q 50 171 51 203 l 50 111 q 17 11 50 41 q 19 9 17 11 q 22 7 21 8 q 24 8 23 7 q 25 8 24 8 m 335 129 q 411 155 397 129 q 453 257 453 205 q 450 290 453 269 q 436 323 446 307 q 436 325 436 324 q 433 325 435 325 q 414 307 425 325 q 412 275 414 286 q 392 191 412 217 q 342 167 375 167 q 283 275 283 189 q 297 332 290 311 q 321 370 304 353 l 294 397 q 253 318 269 379 q 248 273 250 300 q 297 149 248 191 q 310 141 302 146 q 322 133 317 136 q 335 129 327 131 m 452 126 q 525 155 502 126 q 555 207 544 176 q 567 269 567 238 q 549 350 567 318 q 517 387 538 370 q 482 424 492 414 q 470 435 475 431 q 461 442 465 439 q 453 447 458 445 l 441 458 q 415 439 427 454 l 415 432 q 421 429 420 429 l 440 410 q 432 402 437 408 q 424 395 427 397 q 351 269 353 334 q 363 218 351 241 q 367 206 366 212 q 369 200 369 201 q 372 195 370 199 q 378 196 376 195 q 384 202 381 198 q 389 209 387 206 q 395 218 391 212 q 392 264 392 248 q 419 334 395 313 q 463 372 430 345 l 441 397 l 441 404 l 450 404 q 507 341 486 370 q 528 277 528 312 q 489 174 528 207 q 461 165 482 168 q 443 170 449 165 q 437 168 439 170 l 421 142 l 452 126 m 359 351 l 361 351 l 383 370 q 353 404 374 384 q 316 441 332 425 q 292 472 299 458 l 315 504 l 298 524 q 281 514 290 521 q 262 495 273 507 q 245 479 251 484 q 243 473 243 473 q 270 439 256 453 q 304 406 283 425 q 345 366 325 386 q 357 351 349 361 l 359 351 m 367 414 l 457 500 l 435 526 l 431 526 l 343 446 q 353 427 343 434 q 367 414 358 422 m 504 421 l 558 476 l 476 549 l 428 593 l 406 574 q 407 572 406 573 q 407 568 407 571 l 505 475 l 481 446 l 503 421 l 504 421 m 355 488 l 378 507 q 333 552 368 523 q 289 606 299 582 q 300 621 291 612 q 311 633 309 630 l 289 654 l 282 654 l 236 606 q 235 600 236 603 q 256 575 240 590 q 277 554 273 561 q 311 527 293 543 q 353 488 328 511 l 355 488 m 701 536 q 730 576 721 545 q 713 636 730 616 q 700 646 709 639 q 684 654 691 653 l 628 608 q 625 606 628 608 q 628 597 625 602 q 634 589 630 593 q 643 581 637 586 q 662 566 650 577 q 679 553 674 555 q 685 547 682 550 q 690 543 688 544 q 694 539 692 541 q 701 536 697 538 m 357 549 l 359 549 l 444 632 l 424 653 q 401 632 416 646 q 378 610 387 618 q 357 590 372 603 q 338 567 341 578 l 355 549 l 357 549 m 361 611 l 363 611 l 385 628 l 332 685 q 333 686 332 686 q 335 686 334 686 l 349 673 q 398 725 377 696 q 436 791 419 753 q 418 889 436 865 l 414 889 q 393 859 393 870 q 401 811 401 840 q 379 751 401 771 q 348 720 363 734 q 323 689 334 706 q 271 766 288 715 q 265 812 265 787 q 306 908 267 875 q 328 915 311 913 q 347 917 345 916 l 367 945 q 336 954 357 954 q 314 951 328 954 q 278 930 294 945 q 232 807 234 886 q 243 733 232 765 q 272 689 252 713 q 315 646 292 666 q 361 611 338 626 m 500 610 l 525 631 l 525 635 l 415 725 l 395 704 q 393 703 394 703 q 390 702 391 703 q 389 701 389 702 q 436 661 398 694 q 500 610 474 627 m 493 682 q 543 761 532 713 q 534 852 543 821 q 473 947 518 916 q 440 957 458 955 q 400 947 419 957 q 330 808 339 913 q 349 737 332 766 q 363 751 354 741 q 375 765 372 761 q 371 802 371 785 q 376 831 372 812 q 382 867 380 850 q 421 917 394 901 q 469 901 454 917 q 500 851 488 881 q 511 791 511 821 q 504 754 511 773 q 497 739 502 747 q 485 721 492 730 q 469 701 477 712 q 470 700 469 701 q 471 697 470 699 l 493 682 "},"{":{"ha":354,"x_min":26,"x_max":329,"o":"m 126 478 q 222 675 222 525 q 218 755 222 701 q 215 835 215 810 q 271 987 215 947 q 329 1018 310 1011 q 313 1019 323 1019 q 174 979 231 1019 q 113 854 113 932 q 115 782 113 833 q 117 701 117 730 q 26 478 117 526 q 98 397 79 447 q 113 290 113 359 q 111 221 113 265 q 110 154 110 174 q 146 0 110 46 q 326 -65 195 -61 l 329 -64 q 233 5 253 -29 q 218 125 218 36 q 221 196 218 147 q 222 269 222 244 q 126 478 222 428 "},"E":{"ha":468,"x_min":11,"x_max":444,"o":"m 17 4 l 444 -1 l 437 154 q 432 153 435 154 q 428 151 430 152 q 422 147 426 149 q 409 127 415 138 q 397 111 403 117 q 264 50 354 62 q 204 49 243 49 q 190 119 193 85 q 187 205 187 152 q 189 261 187 226 q 191 328 191 297 q 172 493 191 436 l 140 467 q 147 440 147 446 q 143 428 147 434 q 119 422 139 422 q 102 437 106 430 q 119 481 102 452 q 142 502 124 485 q 175 530 161 518 q 147 557 170 544 l 143 557 q 77 500 127 545 q 62 484 75 497 q 47 469 49 471 q 46 371 46 437 q 43 242 44 300 q 39 92 41 184 q 27 53 35 77 q 11 8 18 30 q 14 5 11 8 q 17 4 16 4 m 301 421 l 400 517 l 400 526 q 367 562 389 535 q 331 601 346 588 q 297 618 316 614 q 271 591 274 598 q 287 576 279 584 q 301 561 294 569 q 318 546 309 557 q 335 528 327 535 q 340 521 338 524 q 343 516 342 519 q 345 510 345 513 l 310 476 l 286 497 q 258 469 273 494 l 258 463 q 261 462 259 463 q 264 461 262 462 l 301 421 m 203 439 l 309 534 l 282 564 q 254 544 268 556 q 221 513 239 532 q 195 485 203 494 q 192 481 193 481 l 201 437 q 202 438 202 438 q 203 439 203 439 m 208 519 l 211 519 l 236 547 q 207 582 229 559 q 178 615 186 604 q 165 624 169 619 q 136 596 148 619 q 207 521 165 555 q 208 520 208 521 q 208 519 208 520 m 89 526 l 115 549 l 115 554 q 118 561 118 557 l 111 561 q 94 576 101 565 q 104 590 98 583 q 115 601 110 596 q 126 614 119 606 q 178 663 156 633 l 144 700 l 122 665 l 45 596 q 43 578 43 595 q 53 566 47 574 q 64 550 58 557 q 77 536 71 543 q 87 526 83 530 l 89 526 m 232 578 l 278 619 l 322 659 l 347 633 q 343 624 347 630 q 338 616 338 618 l 354 597 q 366 591 360 591 l 403 625 l 323 710 l 260 660 l 203 606 l 232 578 m 224 642 l 250 667 q 221 698 240 677 q 193 737 203 719 q 183 777 183 755 q 186 796 183 781 q 184 993 186 928 q 186 1005 186 1000 q 187 1013 186 1009 q 249 1003 214 1013 q 408 920 367 950 q 411 917 410 917 q 419 920 416 917 l 414 1065 l 22 1065 q 37 978 33 1023 q 42 883 41 933 q 44 786 43 833 q 47 692 45 739 q 81 652 53 678 q 82 651 81 651 q 83 650 83 650 l 106 675 l 92 697 q 102 725 92 719 q 115 728 110 728 q 146 715 127 728 q 222 640 174 689 q 223 641 223 641 q 224 642 224 642 "},"F":{"ha":446,"x_min":14,"x_max":432,"o":"m 102 3 l 222 7 q 227 14 227 11 q 200 99 208 54 q 192 195 192 145 q 193 243 192 212 q 195 306 194 275 q 196 354 196 336 q 174 510 196 449 q 140 473 151 492 q 145 458 141 468 q 149 440 149 448 q 144 429 149 433 q 115 422 138 422 q 105 434 108 426 q 103 454 103 441 q 122 479 107 467 q 139 496 136 491 q 162 516 147 505 q 182 533 176 528 l 157 564 q 155 565 156 564 q 153 566 154 566 l 90 509 l 81 503 l 50 467 q 39 90 47 214 q 27 48 37 73 q 14 9 17 23 q 56 6 26 6 q 102 3 86 6 m 309 424 l 408 521 l 408 525 q 309 629 342 600 l 281 602 q 300 575 288 587 q 328 547 311 563 q 353 517 345 530 l 315 482 l 293 500 q 268 476 276 491 q 288 445 271 464 q 307 424 305 427 l 309 424 m 210 439 l 315 539 l 315 543 l 289 571 q 265 552 279 566 q 244 533 251 538 q 231 518 239 526 q 220 505 222 510 q 200 486 208 500 l 207 439 l 210 439 m 218 525 l 222 525 l 235 536 l 243 550 q 212 591 233 570 q 171 632 191 612 l 146 603 l 216 525 l 218 525 m 94 528 l 123 550 l 103 581 l 187 668 l 187 672 l 151 711 q 150 710 150 710 q 149 708 150 710 q 126 670 142 687 q 84 631 111 653 q 45 593 57 608 q 53 575 48 583 q 71 553 58 568 q 93 528 83 538 l 94 528 m 241 583 q 283 624 252 592 q 334 668 315 656 l 340 664 l 359 644 l 339 616 q 343 610 341 613 q 350 603 346 607 q 359 597 355 600 q 368 589 363 594 l 412 633 l 412 637 l 334 721 q 311 705 320 713 q 290 686 302 697 q 262 661 277 674 q 211 611 231 635 l 239 582 q 240 583 239 583 q 241 583 241 583 m 232 648 l 260 676 q 210 734 223 699 q 196 817 196 770 q 197 846 196 830 q 199 877 198 862 q 200 901 199 891 q 200 929 200 911 q 199 965 200 954 q 199 990 199 974 q 200 1014 199 1006 q 218 1018 208 1018 q 262 1008 231 1018 q 363 963 332 978 q 419 928 393 948 q 425 926 422 926 q 428 925 427 926 q 430 926 429 925 q 432 928 431 928 l 429 1072 l 31 1067 q 36 1048 34 1057 q 41 1028 39 1039 q 53 937 53 995 q 53 904 53 917 q 52 876 52 892 q 53 843 53 865 q 53 802 53 818 q 52 766 52 786 q 58 694 52 724 q 72 679 66 685 q 81 668 77 673 q 90 659 85 664 q 104 668 98 661 q 115 682 110 675 q 106 696 114 688 q 98 711 98 705 q 102 721 98 716 q 107 730 104 727 q 122 734 113 734 q 146 729 130 734 q 186 691 163 714 q 231 647 209 668 q 232 648 231 648 q 232 648 232 648 "},"G":{"ha":676,"x_min":18,"x_max":659,"o":"m 435 -196 q 447 -195 439 -196 q 462 -192 455 -193 q 476 -191 469 -191 q 559 -151 524 -176 q 612 -89 594 -127 q 652 82 652 -27 q 653 135 652 118 q 654 245 654 195 q 654 375 654 296 q 657 455 656 409 q 659 503 659 500 q 625 510 646 510 q 601 510 610 510 q 581 509 591 509 q 510 511 533 509 q 507 507 509 511 q 536 380 536 466 q 534 310 536 332 q 538 268 538 288 q 494 136 535 177 q 323 54 435 54 q 221 101 264 62 q 150 200 178 141 q 125 280 134 236 q 114 364 116 323 q 113 464 113 404 q 128 495 118 479 q 154 526 138 510 q 178 551 170 543 q 204 576 187 559 l 249 627 l 229 647 l 225 647 l 191 621 q 176 602 188 616 q 160 583 163 588 q 116 544 146 572 q 79 510 86 515 q 48 480 69 501 q 18 452 28 460 q 60 197 18 298 q 164 57 98 116 q 347 -1 231 1 q 421 3 397 -1 q 476 21 452 7 q 529 58 500 35 l 533 58 q 536 43 535 54 q 539 28 538 32 q 490 -125 537 -66 q 454 -153 471 -147 q 455 -139 455 -145 q 456 -121 456 -132 q 437 -65 453 -81 q 389 -49 423 -49 q 367 -50 374 -49 q 328 -87 340 -58 q 325 -106 325 -98 q 347 -165 325 -137 q 361 -175 355 -172 q 380 -182 367 -178 q 399 -189 393 -186 q 419 -193 410 -192 q 435 -196 429 -195 m 376 113 q 446 140 423 113 q 494 258 492 187 q 486 314 494 292 q 466 349 477 333 q 429 391 454 364 q 399 424 404 418 q 385 433 394 426 q 368 444 376 441 l 347 424 q 381 389 358 412 q 419 349 405 366 q 443 311 433 333 q 456 261 454 289 q 411 160 454 192 q 386 151 399 151 q 363 157 379 151 l 345 131 q 347 126 345 129 l 376 113 m 268 118 l 309 122 q 378 227 366 160 q 374 289 378 269 q 364 310 370 298 l 359 310 q 338 279 338 293 q 342 253 342 266 q 321 183 340 220 q 273 155 304 155 q 267 157 271 155 q 264 158 264 158 q 237 185 246 170 q 216 236 229 201 q 253 355 219 315 l 228 386 q 226 386 227 386 q 224 385 225 386 q 191 326 204 361 q 178 256 178 292 q 180 215 178 228 q 192 190 186 203 q 201 165 197 176 q 268 118 232 127 m 301 183 q 323 218 317 192 q 319 262 319 239 q 328 294 319 283 q 359 327 338 309 q 389 359 380 346 q 370 382 387 368 q 367 383 368 382 q 366 385 366 384 q 355 375 361 382 q 343 364 349 368 q 321 342 330 351 q 308 328 313 333 q 292 309 303 323 q 281 258 281 283 q 298 183 281 220 l 301 183 m 292 332 l 300 338 l 317 354 l 306 374 l 227 458 l 249 489 l 231 510 l 227 510 q 175 460 198 489 q 190 440 178 452 q 216 416 201 429 q 236 393 231 403 q 250 381 242 389 q 265 365 257 374 q 278 351 273 355 q 290 334 287 340 q 291 333 291 333 q 292 332 292 332 m 300 403 q 392 485 328 420 q 391 487 392 486 q 390 489 391 489 l 367 513 q 331 478 362 509 q 281 436 299 448 q 275 427 275 431 l 297 401 q 298 402 298 402 q 300 403 299 403 m 435 406 l 489 457 q 490 459 490 458 q 490 461 490 460 q 431 520 473 479 q 368 579 389 562 l 363 579 l 339 558 q 377 522 351 545 q 416 486 404 498 q 437 461 428 474 l 411 427 l 433 406 l 435 406 m 298 469 q 317 490 313 479 q 293 520 307 507 q 261 551 279 534 q 243 570 244 563 l 232 581 l 228 581 l 203 557 q 247 515 215 543 q 292 472 279 487 q 298 469 297 469 m 294 534 l 297 534 q 328 563 317 553 q 355 592 338 574 q 380 619 372 610 q 363 642 380 627 q 361 643 361 642 q 359 643 360 643 l 272 558 l 294 534 m 439 533 q 459 544 448 536 q 480 563 469 552 q 498 581 492 574 q 479 606 496 591 q 457 628 462 620 q 366 710 429 652 q 360 714 363 712 q 354 720 357 717 l 350 720 l 334 694 l 390 633 q 406 622 398 629 q 424 604 413 616 q 441 586 435 591 l 416 559 q 420 550 416 554 q 428 541 423 545 q 437 533 433 537 l 439 533 m 296 597 l 318 615 l 318 619 l 282 664 q 251 692 263 675 q 221 742 239 708 q 211 808 211 768 q 214 851 211 838 q 225 873 220 863 q 235 889 231 883 q 249 904 239 896 q 268 916 258 912 q 279 914 272 916 q 290 913 287 913 l 311 943 q 262 953 299 953 q 248 947 254 951 q 232 939 241 944 q 216 919 227 934 q 200 899 205 903 q 176 808 176 857 q 193 725 176 764 q 230 663 207 690 q 296 597 252 637 m 151 603 q 157 606 151 603 l 179 628 q 160 653 176 638 q 142 679 145 667 q 129 771 129 718 q 154 895 132 836 q 212 970 173 939 q 296 1013 250 1001 q 338 1017 317 1017 q 441 970 405 1015 q 529 743 527 884 l 625 804 q 595 912 621 863 q 522 1007 568 961 q 326 1074 446 1072 q 123 989 202 1074 q 49 852 82 943 q 32 777 37 804 q 26 710 27 749 l 71 669 l 150 602 q 151 603 151 602 q 151 603 151 603 m 290 669 q 328 707 311 690 q 359 743 346 724 q 376 783 372 762 q 367 886 376 849 q 363 889 366 886 l 358 889 q 349 879 355 886 q 338 866 342 871 q 335 852 335 860 q 343 810 343 832 q 335 774 341 789 q 300 730 326 756 q 265 689 275 704 q 268 686 265 686 l 289 671 q 290 670 290 671 q 290 669 290 670 m 431 675 q 484 764 476 711 q 472 865 484 827 q 406 949 449 927 q 385 951 392 951 q 339 939 358 951 q 307 905 319 923 q 281 856 294 886 q 278 831 279 842 q 276 811 277 821 q 273 794 275 802 q 288 737 273 764 q 289 736 288 737 q 292 734 290 735 q 315 762 312 753 q 314 806 314 777 q 346 901 314 873 q 379 913 359 913 q 396 909 390 913 q 406 903 400 907 q 411 900 411 900 q 439 849 429 878 q 450 787 450 819 q 441 742 450 766 q 424 716 437 731 q 407 694 411 701 l 431 675 "},"H":{"ha":751,"x_min":14,"x_max":737,"o":"m 543 0 l 737 3 q 713 109 720 53 q 705 220 707 165 q 701 354 703 274 q 698 405 699 368 q 690 466 697 443 q 661 503 684 488 q 660 504 661 503 q 657 504 659 504 l 637 484 l 637 479 l 653 458 q 643 433 653 439 q 628 429 635 429 q 616 432 621 431 q 607 436 612 434 q 600 439 602 438 q 524 517 587 454 l 496 489 q 540 445 526 471 q 557 392 554 419 q 560 321 560 364 q 562 256 560 277 q 564 204 562 237 q 566 144 566 172 q 542 8 566 64 l 542 1 q 543 1 543 1 q 543 0 543 1 m 17 3 l 232 4 l 232 14 q 198 114 207 62 q 189 235 189 166 q 190 282 190 261 q 191 338 191 304 q 175 488 191 425 q 172 494 173 494 q 161 494 164 494 q 155 493 159 494 q 148 486 154 492 q 140 479 142 480 l 136 471 q 146 431 146 458 q 127 416 138 418 q 94 433 103 419 q 92 443 92 439 q 95 454 92 448 q 100 465 98 460 q 133 496 109 473 q 174 532 158 520 l 146 564 q 104 524 117 536 q 57 481 92 512 q 51 472 55 477 q 45 465 46 468 q 45 394 45 441 q 46 323 45 347 q 43 262 43 271 q 44 218 43 242 q 45 180 45 194 q 37 85 45 129 q 25 44 36 71 q 14 3 14 18 l 17 3 m 304 425 q 335 453 318 437 q 361 478 351 470 q 393 509 378 495 q 415 536 407 524 l 393 564 q 373 548 383 560 q 355 532 362 536 q 336 511 348 524 q 307 482 323 498 l 285 497 q 260 467 264 485 l 304 425 m 204 440 l 212 441 q 214 444 213 442 q 215 447 215 445 l 307 539 q 302 548 306 543 q 291 558 298 553 q 279 568 285 564 l 240 534 l 196 489 l 203 441 q 204 441 203 441 q 204 440 204 441 m 427 447 q 542 555 502 511 l 515 583 q 473 545 497 570 q 427 497 449 520 l 421 497 l 408 505 l 390 485 q 425 447 395 471 l 427 447 m 603 457 q 604 458 604 458 q 604 458 604 458 q 611 480 604 471 q 631 502 618 490 q 648 519 644 513 q 677 547 663 533 q 703 576 691 560 q 654 635 677 615 l 631 616 q 629 612 629 615 l 648 586 l 566 494 l 602 457 l 603 457 m 208 524 q 235 551 220 527 l 164 628 q 153 619 159 627 q 142 608 147 611 q 139 603 140 605 q 138 599 138 601 l 207 524 l 208 524 m 87 528 l 115 551 l 94 578 l 178 667 q 160 691 175 677 q 143 708 144 706 q 115 665 128 675 q 37 589 54 607 l 86 528 l 87 528 m 340 533 l 363 558 l 349 581 l 340 589 l 298 625 l 273 600 l 273 595 q 304 561 284 581 q 329 536 325 542 q 338 532 330 535 q 339 533 338 532 q 340 533 340 533 m 582 536 q 607 567 603 554 l 538 640 l 511 616 q 527 592 517 603 q 555 563 537 581 q 581 536 572 545 l 582 536 m 447 538 l 473 567 q 445 596 464 574 q 415 628 427 618 q 408 631 411 628 l 383 603 l 446 538 l 447 538 m 227 582 q 279 625 250 594 q 321 665 308 656 q 327 663 323 665 q 333 658 330 661 q 338 653 335 656 l 359 672 l 358 684 l 323 720 q 283 687 305 707 q 245 651 261 667 q 203 608 229 634 l 224 583 q 227 582 225 583 m 349 591 l 351 591 q 369 612 362 604 q 385 630 376 621 q 404 647 394 639 q 421 668 410 654 q 440 685 433 682 l 463 667 l 485 697 l 444 742 l 326 621 q 323 616 323 618 q 349 591 326 606 m 467 596 l 507 631 l 553 684 l 546 725 q 514 699 532 717 q 490 676 496 681 q 439 625 471 659 l 465 596 l 467 596 m 603 602 q 642 640 623 622 q 673 670 661 659 q 697 700 684 682 l 697 734 q 697 808 697 781 q 696 869 696 836 q 704 1051 696 978 q 709 1066 707 1059 q 713 1079 712 1073 q 675 1082 687 1082 q 635 1081 661 1082 q 584 1079 610 1080 q 543 1078 557 1078 q 535 1079 539 1078 q 526 1079 532 1079 q 533 1050 526 1072 q 539 1021 539 1029 q 543 1003 541 1015 q 546 986 544 991 q 549 927 547 964 q 551 859 550 890 q 553 796 551 827 q 555 748 554 774 q 562 702 557 723 q 578 663 566 681 q 581 661 579 661 q 586 659 583 660 q 610 688 596 662 q 603 703 608 692 q 597 721 597 714 q 600 732 597 724 q 629 743 608 743 q 642 736 637 739 q 647 717 647 728 q 642 697 647 705 q 608 666 630 688 q 574 635 587 644 q 573 633 574 634 q 572 631 573 632 q 603 602 579 610 m 218 644 q 222 646 221 644 l 252 675 q 209 716 224 692 q 189 768 194 740 q 183 828 183 796 q 184 882 184 857 q 184 945 184 906 q 187 954 187 949 q 184 979 184 970 q 186 1002 184 989 q 193 1035 188 1015 q 200 1071 197 1056 q 139 1074 180 1074 q 74 1073 98 1074 q 18 1072 49 1073 q 18 1072 18 1072 q 17 1069 18 1071 q 32 1018 28 1034 q 41 880 41 965 q 42 815 41 850 q 43 759 42 780 q 46 700 43 739 l 83 659 q 106 684 99 666 q 105 685 106 684 q 104 688 105 686 q 90 717 90 701 q 102 733 95 732 q 115 736 110 736 q 146 722 134 736 q 182 684 159 711 q 216 644 205 656 l 218 644 "},"I":{"ha":424,"x_min":12,"x_max":411,"o":"m 125 1 l 285 5 q 280 52 285 22 q 275 97 275 82 l 275 235 l 275 440 l 235 496 q 219 488 231 494 q 199 481 208 481 q 177 497 186 488 q 156 522 167 506 q 136 552 145 537 q 125 568 126 567 l 92 526 q 131 461 111 500 q 153 304 153 408 q 152 236 152 270 q 151 167 151 201 q 136 45 149 91 q 127 26 130 35 q 121 7 125 18 q 125 1 121 3 m 89 410 q 93 412 92 412 q 103 421 98 418 l 118 440 l 103 479 q 101 480 102 480 q 98 481 100 481 l 90 473 l 87 473 q 79 483 83 478 q 70 492 74 487 q 65 504 66 498 q 89 538 77 522 q 120 578 100 554 q 149 614 139 602 l 122 646 q 63 574 98 618 q 16 515 28 529 q 13 513 13 514 q 12 511 12 512 l 86 410 l 89 410 m 319 419 l 354 460 l 386 498 q 392 506 388 500 q 399 515 396 512 l 367 561 q 352 550 357 557 q 339 532 346 543 l 351 510 l 329 482 q 305 503 315 491 q 278 539 295 515 q 248 576 261 563 l 222 541 q 278 465 252 492 q 281 463 281 463 l 317 418 q 318 419 317 418 q 319 419 319 419 m 184 522 l 256 612 l 231 647 l 227 647 q 194 608 213 630 q 158 561 176 585 q 161 546 158 553 q 169 535 165 540 q 178 525 173 530 q 182 522 182 522 l 184 522 m 307 518 l 403 627 l 411 642 l 334 750 q 329 753 332 751 q 325 754 326 754 l 285 710 l 297 672 q 299 671 298 671 q 301 669 300 671 l 328 693 q 338 683 334 688 q 350 666 342 678 q 358 652 357 654 l 358 647 q 332 613 347 634 q 306 581 316 592 q 298 570 305 578 q 287 556 290 562 q 283 546 284 551 l 306 518 l 307 518 m 50 589 l 54 589 q 81 619 78 610 l 69 637 l 102 676 q 127 655 115 668 q 154 625 139 643 q 174 603 170 607 q 199 636 193 618 q 171 668 184 652 q 144 700 158 684 q 109 739 131 715 l 20 642 q 33 613 20 629 q 47 591 46 597 q 49 590 48 591 q 50 589 50 589 m 296 591 l 318 625 q 283 677 295 655 q 272 726 272 700 q 275 750 272 742 q 276 814 276 771 q 277 879 276 858 q 309 1078 279 1006 q 269 1082 305 1080 q 210 1080 258 1081 q 140 1078 162 1079 q 157 885 154 1023 q 157 867 157 879 q 158 848 157 854 q 156 837 157 846 q 154 823 155 827 q 151 717 154 786 q 186 669 172 684 q 192 672 190 669 q 195 676 193 674 q 208 681 199 681 q 218 675 215 677 q 244 648 231 663 q 270 617 256 633 q 294 591 283 602 l 296 591 "},"J":{"ha":421,"x_min":14,"x_max":407,"o":"m 161 5 q 257 43 221 5 q 281 172 281 96 q 274 279 281 205 q 268 378 268 353 q 273 446 268 416 l 273 463 l 229 524 l 207 504 q 181 522 191 511 q 154 557 172 532 q 122 593 136 582 l 94 558 q 150 345 150 490 q 147 245 150 311 q 150 228 149 240 q 151 212 151 215 q 240 153 208 194 q 253 109 253 133 q 235 47 253 75 q 176 21 211 21 q 149 35 154 24 q 225 69 210 38 q 230 87 229 75 q 233 102 231 98 q 192 172 229 149 q 155 180 174 180 q 113 171 136 180 q 81 92 81 143 q 84 77 81 84 q 92 62 87 70 q 100 47 97 54 q 129 23 114 35 q 161 5 144 10 m 87 435 q 94 437 89 435 l 122 478 l 103 514 l 90 500 q 89 499 90 500 q 86 498 87 499 q 64 530 69 514 q 96 574 86 565 l 146 635 l 121 669 l 14 539 l 87 433 l 87 435 m 317 441 q 397 541 372 505 l 367 581 l 351 575 l 338 554 l 349 534 l 326 507 l 322 507 l 283 553 l 245 600 q 231 583 241 595 q 220 562 221 572 q 239 535 224 554 q 254 514 254 515 q 283 480 266 503 q 315 441 300 456 l 317 441 m 179 549 q 187 555 184 552 q 193 562 190 557 q 201 574 195 566 q 227 603 211 585 q 252 635 243 621 l 228 669 q 154 579 199 640 l 178 549 l 179 549 m 313 553 q 361 608 327 574 q 407 663 395 642 q 325 774 372 720 q 312 763 317 768 q 299 749 307 758 q 282 729 292 740 l 293 699 q 298 693 298 693 q 306 697 303 694 q 311 703 308 699 q 318 710 314 706 q 322 708 321 710 l 354 668 l 288 583 l 311 553 l 313 553 m 52 614 q 81 642 65 620 l 65 665 q 77 682 72 675 q 88 693 83 688 q 103 701 94 698 q 154 647 125 682 q 164 636 158 644 q 174 628 171 629 l 197 657 l 109 758 l 18 663 l 50 612 q 51 613 51 613 q 52 614 52 614 m 293 615 q 314 650 311 637 q 306 663 312 656 q 296 676 300 670 q 278 814 278 734 q 288 957 278 867 q 301 1092 298 1047 l 140 1092 q 138 1084 138 1092 q 151 1040 148 1064 q 154 987 154 1017 q 155 943 154 958 q 156 919 156 930 q 157 897 157 908 q 154 873 157 882 q 153 818 154 849 q 151 775 151 787 q 170 710 151 731 q 178 701 174 706 q 184 693 182 695 q 190 695 187 693 q 195 700 192 696 q 201 707 198 703 l 215 707 l 293 615 "},"K":{"ha":818,"x_min":24,"x_max":812,"o":"m 210 5 l 334 7 q 326 87 333 26 q 319 167 319 147 q 314 328 315 237 q 313 503 313 418 q 204 496 250 503 q 203 396 203 446 q 203 296 203 346 q 195 137 200 201 q 180 12 191 73 q 193 9 182 10 q 210 5 203 9 m 758 -4 q 770 -1 766 -4 q 770 2 770 0 q 771 5 770 4 q 751 58 759 29 q 733 130 743 86 q 724 178 724 174 q 693 351 714 266 q 640 504 672 436 q 616 486 633 496 q 590 468 598 476 q 579 444 581 460 q 594 343 590 395 q 601 219 599 290 q 603 111 602 149 l 603 77 q 602 39 603 49 q 605 21 602 36 q 612 1 607 5 l 758 -4 m 457 172 q 525 269 507 222 q 547 393 545 332 q 515 511 547 464 q 441 555 492 544 q 439 501 439 523 l 447 496 q 465 478 450 491 q 488 400 488 448 q 479 358 488 379 q 454 318 465 326 q 450 319 452 318 l 431 379 l 383 371 q 388 330 385 347 q 400 292 392 313 q 416 251 408 271 q 431 214 424 231 q 441 195 434 209 q 457 172 448 181 m 330 393 l 444 412 l 464 422 q 458 458 464 450 q 452 467 454 464 q 366 441 423 453 q 348 439 360 440 q 329 436 336 437 l 328 395 q 329 394 328 395 q 330 393 330 394 m 184 400 q 187 403 184 400 l 187 457 l 174 464 l 157 486 q 174 505 157 500 q 351 522 245 522 q 355 566 355 528 q 296 565 334 566 q 221 562 259 564 q 161 561 183 561 q 143 560 155 560 q 125 559 131 560 q 29 550 58 559 q 37 515 29 528 q 69 473 45 502 q 184 400 108 427 m 372 454 l 418 467 l 419 593 l 370 585 q 368 534 368 568 q 370 496 368 522 q 371 456 371 469 q 372 455 372 456 q 372 454 372 455 m 557 464 q 607 505 575 478 q 656 546 638 532 q 698 645 688 591 q 716 788 709 699 q 738 932 724 878 q 789 1031 751 986 q 812 1043 798 1039 l 812 1047 q 783 1046 803 1046 q 726 1048 747 1048 q 644 1023 671 1048 q 603 949 614 991 q 591 856 591 907 q 592 781 592 815 q 593 696 593 747 q 594 657 593 678 q 595 625 595 637 q 584 586 593 603 q 561 552 575 568 q 533 521 547 536 l 554 464 l 557 464 m 543 557 q 576 631 572 587 q 539 686 564 666 q 456 745 514 706 l 452 745 l 450 692 q 533 581 504 657 q 542 557 533 576 l 543 557 m 210 572 l 314 575 q 319 617 317 590 q 321 667 321 645 q 323 721 322 688 q 248 710 286 721 q 203 693 218 696 q 196 665 196 680 q 199 629 196 659 q 203 581 203 599 q 210 572 203 577 m 41 586 l 182 590 q 187 636 186 595 q 168 640 180 639 q 147 642 155 640 q 135 650 139 644 q 147 672 135 664 q 225 714 191 702 q 361 734 269 732 l 368 779 q 351 785 363 785 q 337 783 347 785 q 323 782 328 782 q 50 656 134 770 q 39 637 44 646 q 30 621 34 629 q 24 602 25 612 q 26 589 24 593 l 41 586 m 343 596 q 432 612 413 606 q 458 618 446 613 q 488 633 470 624 q 478 648 485 642 q 454 667 471 654 q 409 654 447 665 q 357 642 372 644 q 347 638 353 640 q 338 636 340 637 l 340 596 l 343 596 m 374 659 l 427 675 q 433 716 428 680 q 444 771 439 751 q 461 804 450 791 l 473 798 q 484 745 484 777 l 533 707 q 538 718 537 711 q 540 733 540 726 q 542 751 541 741 q 537 784 541 770 q 526 819 533 799 q 513 859 519 839 q 424 947 467 927 q 401 892 409 922 q 387 813 394 863 q 376 747 380 764 q 374 709 376 731 q 371 681 371 688 q 372 659 371 665 l 374 659 m 196 771 q 318 793 271 793 q 328 841 325 814 q 332 906 330 869 q 338 970 334 943 q 342 1010 338 985 q 346 1054 346 1036 l 157 1047 q 171 994 165 1030 q 179 950 177 958 q 188 856 184 912 q 195 771 191 800 l 196 771 "},"L":{"ha":528,"x_min":14,"x_max":514,"o":"m 146 0 q 227 3 190 1 q 323 5 264 4 q 339 7 330 5 q 354 8 349 8 q 364 5 358 5 q 399 9 380 9 l 461 9 q 514 11 496 9 q 510 53 514 26 q 503 100 507 81 q 494 142 499 120 q 484 197 490 163 q 281 82 396 101 q 273 200 273 135 q 273 320 273 240 q 272 439 273 399 l 232 497 q 230 497 231 497 q 228 496 229 497 l 211 478 q 205 473 209 475 l 197 478 q 160 521 181 493 q 134 554 138 549 q 131 556 132 555 q 129 558 130 557 q 119 550 123 555 q 111 537 115 545 q 103 524 107 530 l 103 519 q 135 461 125 493 q 149 394 146 430 q 153 318 153 359 q 155 192 153 232 q 142 7 153 62 q 143 1 142 3 q 144 1 144 1 q 146 0 144 1 m 86 411 l 92 411 q 112 433 102 418 q 125 453 121 449 l 106 489 q 97 482 101 489 q 89 473 92 475 l 64 501 l 97 549 l 140 608 l 115 640 q 80 597 101 626 q 49 558 58 568 q 32 537 45 552 q 14 510 20 522 l 86 411 m 317 421 q 397 519 359 465 l 370 555 l 339 530 l 347 514 q 347 512 347 513 q 346 510 347 511 l 334 496 l 323 489 l 298 505 l 245 581 l 220 546 q 246 504 231 524 q 279 463 260 484 q 315 421 298 441 l 317 421 m 182 525 l 252 615 l 228 652 q 218 650 221 652 l 151 562 q 180 524 162 538 q 181 525 181 524 q 182 525 182 525 m 311 532 q 350 576 333 557 q 381 611 367 594 q 408 647 396 629 l 325 757 l 321 757 l 282 714 l 294 677 q 296 675 296 676 q 298 673 297 674 l 323 697 q 355 653 345 681 q 333 624 349 642 q 303 592 316 606 q 285 562 291 577 q 311 532 292 541 m 53 589 l 79 616 l 66 642 l 66 644 l 102 682 q 132 653 116 672 q 168 610 148 634 q 177 615 174 611 q 187 628 181 618 q 195 639 193 637 q 111 736 172 672 q 109 737 110 736 q 107 739 108 739 q 96 728 102 736 q 85 717 90 720 q 52 678 74 702 q 24 644 31 654 q 21 643 22 644 q 20 642 20 642 q 24 625 20 632 q 36 608 28 617 q 47 593 44 600 q 52 589 47 589 l 53 589 m 293 595 q 302 607 297 601 q 311 619 307 613 q 314 633 314 625 q 268 760 268 670 q 269 794 269 779 q 269 833 269 810 q 275 936 271 852 q 292 1067 278 1019 q 293 1072 294 1072 q 292 1073 292 1073 q 292 1074 292 1073 l 138 1072 q 136 1072 138 1072 q 132 1069 134 1071 q 154 945 154 1022 q 154 911 154 922 q 153 882 153 899 q 151 845 152 865 q 150 810 150 826 q 183 672 150 719 l 208 692 q 254 643 231 680 q 293 595 277 606 "},"M":{"ha":897,"x_min":25,"x_max":873,"o":"m 40 8 l 184 11 q 189 62 187 45 q 188 132 189 94 q 186 192 186 170 q 189 229 186 208 l 189 385 q 193 463 189 423 q 197 560 195 497 q 200 684 199 623 q 204 800 201 746 q 210 888 207 854 q 214 886 210 888 q 259 789 243 821 q 295 717 275 757 q 348 612 315 677 q 401 498 380 546 q 435 567 427 536 q 379 688 407 627 q 319 821 351 749 q 260 948 286 892 q 212 1051 235 1005 q 174 1060 198 1060 q 115 1063 135 1060 q 107 1061 110 1063 l 25 1059 q 31 1034 25 1051 q 36 1006 36 1016 q 40 987 39 997 q 45 966 41 978 q 58 734 58 836 q 56 490 56 569 q 53 458 53 481 q 52 390 52 436 q 49 330 49 352 l 49 165 q 41 50 46 87 q 37 33 40 42 q 35 20 35 24 q 37 8 35 11 l 40 8 m 203 11 l 343 11 q 384 90 359 39 q 427 175 409 140 q 465 241 444 210 q 471 254 465 246 q 471 256 471 255 q 469 258 471 257 q 478 274 470 261 q 486 296 486 287 q 479 311 482 304 q 469 329 475 317 q 463 343 463 340 q 461 344 462 344 q 458 345 460 345 l 307 53 l 298 49 l 277 52 q 281 71 278 64 q 290 89 283 77 q 300 109 296 100 q 328 166 307 128 q 359 228 349 204 q 370 278 370 252 q 358 304 363 292 q 346 330 353 316 q 342 334 342 334 q 270 178 305 256 q 200 12 234 100 q 201 12 200 12 q 203 11 201 11 m 743 1 l 873 1 q 846 197 846 73 q 844 363 846 309 q 841 556 842 441 q 840 825 840 671 q 845 898 842 842 q 852 990 848 954 q 871 1057 857 1026 q 869 1060 871 1060 l 671 1064 q 514 711 600 888 q 523 682 517 693 q 537 654 528 670 q 551 631 547 639 q 554 629 551 629 l 682 884 l 689 896 q 691 896 690 896 q 692 895 692 896 q 704 652 700 769 q 704 604 704 621 q 703 566 703 586 q 704 470 704 506 q 705 390 705 433 q 706 345 706 366 q 707 290 707 323 q 710 197 709 228 q 710 102 710 166 q 711 7 711 38 l 743 1 m 532 8 l 689 9 l 488 454 q 486 455 487 455 q 484 456 486 456 q 463 416 471 433 q 456 396 456 408 q 461 379 456 387 q 519 256 494 310 q 571 147 545 202 q 614 57 597 92 q 602 54 610 54 q 591 56 601 54 q 574 58 581 58 l 479 237 q 477 237 478 237 q 475 236 476 237 l 444 179 l 532 8 m 399 262 q 400 263 399 263 q 400 264 400 264 q 416 292 406 275 q 432 319 427 310 q 426 341 432 329 q 419 358 419 353 q 384 432 404 385 q 354 498 363 479 l 372 534 l 343 595 l 339 595 q 320 553 336 578 q 298 514 304 527 q 292 486 292 502 q 302 454 292 469 q 312 435 304 450 q 323 412 319 419 q 334 392 327 406 q 371 319 349 366 q 379 303 374 313 q 389 281 384 292 q 396 264 393 271 q 399 262 397 264 m 429 379 q 445 415 435 389 q 465 454 454 441 q 484 488 469 464 q 500 526 499 511 q 490 553 500 541 q 483 570 487 561 q 475 586 479 580 q 467 597 471 593 q 445 556 457 586 q 425 514 433 526 q 411 486 424 510 q 397 446 397 462 q 410 418 404 433 q 422 390 416 404 q 424 385 422 388 q 427 379 426 382 l 429 379 m 542 386 l 596 485 l 449 796 q 421 756 433 780 q 392 696 408 732 l 421 639 l 440 672 q 532 497 479 618 q 519 467 528 486 q 509 441 510 448 q 524 414 515 432 q 541 385 532 395 q 542 386 541 385 q 542 386 542 386 "},"N":{"ha":846,"x_min":14,"x_max":832,"o":"m 196 0 l 216 3 q 205 158 205 70 q 207 223 205 182 q 209 307 208 265 q 210 372 210 349 q 208 435 210 414 q 207 461 207 444 l 207 539 l 211 737 q 231 725 218 737 q 250 685 250 703 q 248 671 250 679 l 245 566 q 300 558 260 558 l 301 590 q 295 594 300 593 q 288 597 290 595 l 292 725 l 379 720 l 380 600 l 412 597 q 419 653 419 620 q 419 706 419 686 q 418 750 418 726 q 353 760 398 758 q 292 765 307 762 q 271 790 284 775 q 241 825 258 804 q 217 861 224 845 q 207 897 209 878 q 210 929 210 916 q 209 961 210 949 q 208 987 209 973 q 218 1042 208 1022 q 216 1047 218 1044 l 75 1050 l 24 1053 q 18 1047 18 1050 q 54 889 54 991 q 52 816 54 865 q 49 743 49 766 q 50 707 49 718 q 49 666 50 693 q 49 621 49 638 q 49 583 49 604 q 50 472 50 523 q 50 340 50 421 q 48 170 50 239 q 40 40 45 100 q 35 36 37 37 l 14 4 l 196 0 m 726 1 l 827 0 q 832 4 828 0 l 832 8 q 807 109 807 42 q 806 248 806 156 q 806 386 806 339 l 806 986 q 819 1015 813 1002 q 827 1036 825 1027 l 637 1042 q 633 1040 635 1042 q 663 924 663 999 q 660 783 661 843 q 657 682 659 723 q 657 595 657 635 q 657 493 657 555 q 659 400 658 431 q 658 358 658 386 q 657 317 658 331 q 653 314 657 314 l 635 338 q 615 397 615 358 q 616 425 615 406 q 618 454 618 445 q 615 481 618 472 q 612 484 612 484 l 564 489 q 559 486 561 489 l 558 450 l 578 441 l 579 329 l 488 330 q 481 368 484 338 q 482 388 481 379 q 482 411 482 397 q 479 440 482 431 l 446 441 l 447 298 l 488 292 q 554 283 534 292 q 633 189 607 227 q 659 102 659 151 q 652 56 659 76 q 637 4 642 17 l 726 1 m 513 370 l 541 370 q 547 444 547 399 q 547 512 547 486 q 546 570 547 538 l 501 578 q 498 543 498 574 q 503 542 499 542 q 507 539 507 542 l 507 418 q 494 410 504 412 l 496 374 l 513 370 m 411 375 l 431 375 l 431 412 q 424 414 429 414 q 416 416 419 414 l 416 539 q 412 543 416 542 q 407 545 408 543 l 378 542 q 376 397 378 447 q 380 382 380 382 l 411 375 m 492 450 q 493 452 492 451 q 494 453 494 452 l 496 486 q 431 494 486 491 l 432 458 q 464 453 443 454 q 492 450 485 452 m 350 463 l 363 463 q 367 473 367 467 q 366 486 367 477 q 364 497 364 494 q 360 502 364 500 q 354 504 355 503 q 351 530 351 513 l 351 596 q 353 620 353 610 q 357 636 353 629 l 364 636 q 370 669 370 643 l 315 672 q 310 635 310 658 q 311 593 310 621 q 313 550 313 564 l 313 471 l 350 463 m 460 505 l 478 505 q 488 595 488 543 q 484 663 488 631 l 435 671 l 429 639 q 440 632 429 632 q 449 625 444 632 l 443 517 q 446 511 443 513 l 460 505 m 432 549 l 433 583 l 374 587 q 371 580 372 585 q 369 567 370 575 q 368 555 369 559 q 402 550 378 551 q 432 549 427 549 "},"O":{"ha":690,"x_min":18,"x_max":672,"o":"m 297 4 q 443 15 385 4 q 536 65 500 26 q 654 268 616 140 q 671 414 669 331 q 669 461 671 443 q 672 467 672 467 q 672 468 672 467 q 671 471 672 469 l 526 585 l 492 557 l 492 551 q 506 537 498 545 q 518 525 514 530 q 534 511 524 521 q 554 493 545 501 q 566 457 562 477 q 572 361 572 427 q 488 123 568 212 q 422 72 466 100 q 346 58 387 58 q 239 98 282 60 q 175 171 195 133 q 114 393 114 267 l 114 424 q 117 471 115 457 q 125 493 119 486 q 212 586 145 519 q 236 612 222 596 q 244 622 237 615 q 253 632 252 629 l 228 652 l 200 627 l 191 621 q 155 585 189 618 q 145 575 150 580 q 136 567 140 570 q 86 518 135 566 q 18 452 37 471 q 20 383 18 412 q 25 334 22 353 q 87 158 39 235 q 103 133 94 144 q 125 104 113 121 q 201 40 160 63 q 297 4 243 16 m 273 121 q 342 146 319 121 q 386 248 384 193 q 383 278 386 268 q 372 317 381 299 q 372 317 372 317 q 370 318 372 317 q 345 294 353 314 q 347 257 347 282 q 310 167 342 197 q 286 161 300 161 q 249 178 265 161 q 218 257 218 203 q 225 300 220 273 q 256 359 241 347 l 233 390 q 224 386 229 390 q 216 378 220 382 q 183 265 185 323 q 207 172 183 211 q 273 121 232 134 m 383 118 q 433 127 410 118 q 453 146 444 137 q 469 168 463 155 q 500 260 498 202 q 498 297 500 286 q 480 348 495 328 q 437 397 466 368 q 415 419 429 405 q 392 439 402 434 q 383 446 386 444 q 376 450 380 448 l 357 439 l 353 429 l 353 425 q 382 400 363 414 q 408 375 400 386 q 426 353 411 371 q 450 322 441 335 q 458 296 458 309 q 463 262 463 279 q 440 187 461 233 q 390 157 416 159 q 372 163 383 160 q 353 132 353 141 l 383 118 m 310 187 q 318 195 315 191 q 325 209 321 199 q 329 221 328 219 q 328 248 329 231 q 326 272 326 264 q 332 301 326 292 q 365 335 342 314 q 396 367 388 357 q 372 390 393 377 q 347 365 363 385 q 323 340 332 345 q 288 268 290 318 q 289 237 288 248 q 307 187 299 196 l 310 187 m 294 342 q 301 340 298 342 l 318 363 l 227 465 l 250 496 l 239 513 l 232 515 q 180 467 207 500 q 197 443 182 455 q 215 425 212 431 q 249 391 224 416 q 294 342 273 366 m 304 408 l 395 493 l 372 519 l 368 519 l 332 488 l 279 436 l 281 425 l 292 415 l 304 408 m 437 414 l 439 414 l 494 468 q 467 497 488 479 q 437 525 446 514 q 398 561 414 545 q 370 586 381 577 l 345 568 q 354 554 345 564 q 399 512 369 538 q 441 469 429 486 l 416 437 l 437 414 m 298 481 q 301 482 300 481 q 304 482 302 482 q 311 490 307 485 q 318 498 316 494 l 315 510 l 231 585 q 204 559 218 580 l 239 530 l 290 484 l 297 481 l 298 481 m 296 543 l 298 543 l 386 628 l 364 650 l 275 562 l 294 543 l 296 543 m 443 542 l 446 542 q 507 591 473 561 q 571 650 541 622 q 636 704 602 677 q 608 886 636 802 q 539 991 593 932 q 521 1009 532 1001 q 497 1028 511 1017 q 350 1074 435 1069 q 203 1047 269 1074 q 125 986 166 1027 q 56 866 81 939 q 26 708 30 793 q 31 703 30 703 l 149 606 l 153 606 l 180 629 l 180 635 q 162 655 177 642 q 146 677 148 669 q 132 783 132 726 q 172 929 137 871 q 361 1015 244 1015 q 500 888 445 999 q 509 867 503 880 q 517 844 515 854 q 533 726 533 776 q 522 661 533 697 l 421 567 l 441 542 l 443 542 m 301 608 l 304 608 q 325 624 312 610 q 298 656 319 637 q 271 682 277 675 q 245 709 256 693 q 225 739 235 724 q 210 818 210 777 q 218 863 212 843 q 229 880 219 864 q 249 904 239 896 q 269 916 258 913 q 292 913 287 913 l 311 943 q 268 954 304 951 q 225 933 257 951 q 176 811 178 882 q 182 762 176 785 q 261 643 199 694 q 283 623 274 631 q 298 608 292 614 l 301 608 m 437 603 l 468 627 l 355 725 l 332 699 q 332 697 332 698 q 334 696 333 696 l 437 603 m 301 681 q 310 688 309 688 q 359 750 349 730 q 380 807 380 774 q 370 865 380 836 q 364 875 368 870 q 361 886 361 880 q 361 886 361 886 q 358 888 361 886 q 335 859 345 880 q 341 843 339 851 q 345 827 343 834 q 337 785 343 803 q 321 753 330 767 q 301 728 311 739 q 275 700 291 717 l 300 681 l 301 681 m 432 681 l 435 681 q 485 757 469 711 q 482 821 485 793 q 475 865 479 850 q 414 949 452 921 q 387 953 411 949 q 336 937 360 953 q 293 882 311 920 q 277 811 279 854 q 288 742 277 771 q 290 737 290 737 q 300 742 296 737 q 309 751 305 747 q 311 753 310 753 q 313 754 312 753 q 318 765 315 757 q 315 808 315 779 q 317 823 315 814 q 319 844 318 832 q 332 885 320 867 q 363 911 344 902 q 379 914 368 914 q 421 893 400 913 q 454 787 454 838 q 447 750 452 762 q 437 733 442 740 q 425 717 431 726 l 411 703 q 419 692 412 699 q 432 681 426 686 "},"P":{"ha":757,"x_min":14,"x_max":742,"o":"m 180 0 l 330 0 q 323 67 330 21 q 317 136 317 113 q 310 241 312 189 q 308 353 309 294 q 306 492 307 413 q 282 494 291 494 q 254 492 268 494 q 224 488 239 490 q 199 485 209 486 q 197 331 197 433 q 193 156 197 229 q 175 14 189 83 q 178 1 175 5 q 179 1 178 1 q 180 0 179 1 m 419 269 q 513 322 473 275 q 517 329 513 323 q 525 340 522 335 q 534 365 531 350 q 539 386 537 379 q 492 521 539 479 q 484 525 486 522 q 443 545 468 536 l 436 545 l 431 492 q 436 486 433 488 q 481 393 481 452 q 478 367 481 386 q 473 354 478 359 q 439 342 456 342 q 429 356 433 345 q 422 376 425 367 l 376 372 q 368 364 371 372 q 386 310 368 338 q 416 269 414 271 l 419 269 m 597 330 q 619 340 614 330 q 621 363 621 349 l 607 363 q 602 357 604 360 q 599 353 601 355 q 591 363 594 353 q 601 392 594 374 q 611 425 607 410 q 627 481 627 454 q 624 498 627 488 l 572 449 q 576 427 576 437 q 576 397 576 408 q 575 372 576 386 q 595 330 575 346 l 597 330 m 325 380 q 397 391 359 385 q 458 408 434 397 q 467 416 465 410 q 447 456 461 447 q 412 443 439 454 q 366 432 385 433 q 325 427 360 429 q 322 380 322 421 l 325 380 m 182 387 l 182 441 q 170 450 182 448 l 153 473 q 163 490 153 485 q 190 498 173 495 q 211 503 207 501 q 346 511 257 511 l 347 557 q 224 553 294 555 q 117 549 155 551 q 33 543 79 548 q 21 533 23 541 q 34 499 24 516 q 55 470 43 483 q 82 444 67 456 q 115 415 98 431 q 182 387 163 393 m 367 443 l 414 457 l 414 586 l 363 576 l 364 443 l 367 443 m 550 452 q 610 509 567 463 q 634 531 625 523 q 657 553 643 539 q 720 647 698 590 q 742 764 742 704 q 726 849 740 806 q 692 918 712 891 q 689 920 690 920 q 686 922 688 920 l 659 958 l 648 964 q 635 976 644 969 q 614 993 626 983 q 531 1029 576 1014 q 436 1052 486 1044 q 345 1061 387 1061 q 208 1055 254 1061 q 179 1053 198 1053 q 147 1050 160 1053 q 147 1049 147 1050 q 146 1047 147 1048 q 174 917 168 994 q 186 768 180 840 q 219 777 197 768 q 253 785 241 785 q 279 788 270 787 q 301 792 288 789 q 322 798 315 795 q 327 846 325 824 q 331 889 328 868 q 336 928 333 911 q 341 954 337 938 q 347 982 345 969 q 350 989 347 986 q 387 993 370 993 q 467 978 414 993 q 550 918 515 959 q 583 848 572 887 q 595 770 593 809 q 597 675 597 730 q 581 585 594 633 q 559 547 571 564 q 542 527 553 537 q 525 510 530 517 l 549 452 l 550 452 m 538 547 q 551 570 545 559 q 562 596 557 581 q 567 629 567 611 q 547 665 560 650 q 517 694 534 681 q 479 722 501 707 q 447 743 458 736 l 440 689 q 534 547 505 642 l 538 547 m 200 564 l 309 567 q 314 635 312 589 q 318 703 316 681 q 289 711 313 711 q 267 705 284 711 q 261 708 264 705 l 192 685 l 196 572 l 199 566 q 200 565 199 565 q 200 564 200 564 m 35 575 l 176 581 q 180 627 180 586 l 138 633 q 132 638 135 636 q 127 644 128 641 l 129 656 q 229 715 157 684 q 325 729 293 729 q 353 728 343 729 q 359 752 358 734 q 363 777 359 770 q 359 779 363 779 q 330 781 350 781 q 150 741 255 781 q 62 672 95 705 q 14 590 29 640 q 17 581 17 586 l 33 575 l 35 575 m 336 586 q 363 591 340 587 q 403 600 387 594 q 437 606 413 600 q 460 615 449 611 q 479 624 471 618 q 481 627 481 624 q 443 664 469 650 q 385 643 420 652 q 330 629 349 634 l 334 587 q 335 587 334 587 q 336 586 336 587 m 367 652 l 419 667 l 449 800 l 457 800 q 469 789 465 798 l 478 741 l 530 703 q 536 741 536 722 q 511 843 536 777 q 419 945 486 904 l 414 945 q 398 902 406 932 q 389 864 391 871 q 372 747 378 792 q 364 652 366 702 l 367 652 "},"Q":{"ha":688,"x_min":14,"x_max":668,"o":"m 583 -123 q 610 -120 589 -121 q 637 -114 630 -119 q 665 -82 651 -108 q 668 -53 668 -66 q 659 -26 668 -35 q 618 -14 637 -14 q 595 -21 604 -14 q 583 -64 583 -41 l 608 -85 q 606 -87 608 -87 q 572 -62 592 -83 q 547 -37 552 -41 q 478 9 524 -5 q 465 11 473 9 q 452 12 456 12 q 449 17 449 15 q 487 39 462 27 q 525 62 512 52 q 608 182 567 103 q 656 330 642 256 q 665 468 663 367 l 522 579 l 488 554 q 486 546 486 553 l 550 490 q 554 476 552 484 q 559 456 557 468 q 567 367 567 399 q 559 296 567 325 q 464 104 541 176 q 407 70 441 83 q 339 56 372 56 q 294 62 318 56 q 197 132 235 86 q 134 248 159 178 q 113 345 121 275 q 111 385 113 358 q 110 425 110 412 q 119 485 110 458 q 153 528 127 511 q 216 590 187 565 q 235 611 226 602 q 249 627 244 621 q 224 646 231 646 l 220 646 l 186 618 q 144 573 165 594 q 81 515 122 553 q 14 452 39 477 l 14 404 q 20 336 14 375 q 38 261 26 297 q 63 195 49 224 q 94 138 77 165 q 252 12 153 45 q 354 1 321 1 q 393 4 368 1 q 376 -12 393 -2 q 368 -43 368 -30 q 375 -64 368 -55 q 408 -78 385 -78 q 437 -60 431 -73 q 440 -33 440 -50 q 441 -32 441 -33 q 443 -32 441 -32 q 446 -35 446 -35 l 460 -43 q 477 -61 465 -50 q 494 -79 489 -73 q 583 -123 522 -109 m 379 115 q 449 144 422 115 q 484 199 474 180 q 496 245 494 217 q 493 301 496 285 q 482 332 489 321 q 371 449 443 393 l 357 440 q 347 425 349 432 q 389 384 363 407 q 432 337 415 360 q 456 288 449 315 q 414 165 456 200 q 375 158 407 158 q 364 160 371 160 l 347 135 q 349 127 347 129 l 379 115 m 269 118 q 289 121 276 118 q 309 123 302 123 q 379 225 358 158 q 364 315 379 290 l 361 315 q 339 286 341 306 q 342 260 342 278 q 322 187 342 220 q 278 158 307 161 q 264 161 271 158 q 251 171 258 165 q 241 178 243 177 q 214 248 214 205 q 224 304 214 270 q 252 358 233 338 l 233 387 q 230 389 233 387 q 225 390 227 390 q 179 236 179 338 q 233 135 190 171 q 251 125 242 130 q 269 118 260 120 m 304 186 q 322 229 322 199 q 322 251 322 243 q 321 269 321 260 q 340 315 321 300 q 347 320 342 318 q 353 323 351 322 q 364 336 356 328 q 376 351 372 345 q 389 368 389 361 l 367 389 q 343 367 357 382 q 321 346 330 351 q 281 260 281 315 q 285 229 281 243 q 301 184 290 201 q 303 185 302 185 q 304 186 304 186 m 292 340 l 313 358 q 309 371 313 359 l 228 457 q 225 471 225 460 l 248 493 l 228 515 q 176 464 199 494 q 187 447 180 454 q 205 428 193 439 q 224 410 218 416 q 253 381 236 400 q 278 354 269 363 q 284 346 281 350 q 292 340 288 341 m 300 406 l 389 490 q 383 502 387 496 q 373 511 378 507 q 364 518 367 516 q 362 518 363 518 q 361 517 361 518 q 275 437 316 469 q 278 427 275 433 q 284 416 280 421 q 292 408 289 412 l 298 404 q 299 405 299 405 q 300 406 300 406 m 433 410 l 481 457 q 486 461 484 460 q 489 468 489 464 l 364 585 l 339 567 l 339 562 l 436 468 l 410 432 l 432 410 l 433 410 m 292 478 l 314 498 q 281 534 309 507 q 268 548 278 538 q 246 568 258 557 q 229 583 234 578 l 225 583 l 200 558 l 290 478 l 292 478 m 437 538 q 473 563 451 543 q 504 587 494 583 q 538 621 513 600 q 570 648 564 642 q 598 673 581 656 q 631 700 616 689 q 621 821 631 760 q 589 926 610 881 q 582 936 585 932 q 578 943 578 940 l 571 949 l 557 971 q 550 979 552 976 q 542 987 547 982 q 419 1067 493 1042 q 313 1076 383 1076 q 233 1062 272 1076 q 162 1024 194 1048 q 106 968 130 1000 q 25 707 25 850 q 142 606 109 633 q 145 605 144 605 q 149 603 147 604 l 178 627 l 178 632 q 156 655 164 646 q 141 675 148 664 q 132 701 134 687 q 127 760 127 729 q 138 843 127 802 q 248 994 157 941 q 338 1017 285 1017 q 393 1008 368 1017 q 456 952 427 989 q 503 873 486 915 q 504 868 503 871 q 507 861 505 865 q 510 856 509 858 q 518 824 515 841 q 525 798 522 807 q 529 734 529 768 q 500 642 529 671 q 458 604 486 626 q 415 562 431 583 l 436 538 l 437 538 m 292 541 l 294 541 l 380 625 l 361 646 q 314 603 342 630 q 275 567 286 575 q 272 558 272 562 l 290 541 l 292 541 m 433 600 l 461 623 q 462 624 461 623 q 463 625 463 624 l 354 721 l 350 721 l 332 696 l 392 635 l 432 599 q 433 600 433 600 q 433 600 433 600 m 297 603 l 300 603 q 318 621 311 609 q 280 661 302 639 q 245 699 258 683 q 225 732 233 715 q 208 806 208 765 q 220 865 208 837 q 243 900 233 888 q 269 914 254 911 q 281 912 275 914 q 288 911 286 911 l 310 943 q 279 954 296 954 q 256 950 268 954 q 238 940 246 946 q 221 929 230 935 q 175 803 175 881 q 186 737 175 765 q 202 700 191 718 q 225 670 214 683 q 258 637 237 658 q 279 618 265 632 q 297 603 294 605 m 288 669 q 322 707 294 677 q 365 762 351 738 q 378 812 378 786 q 375 835 378 821 q 368 862 374 848 q 358 888 362 876 q 334 860 345 883 q 342 817 342 838 q 318 745 342 772 q 265 692 283 714 l 265 688 q 268 684 265 686 l 286 669 l 288 669 m 429 676 l 456 704 q 484 791 484 739 q 457 899 484 849 q 406 950 429 941 q 382 953 389 953 q 328 932 351 953 q 316 920 326 929 q 302 904 306 910 q 272 799 272 851 q 285 736 272 767 q 286 735 286 736 q 288 734 287 735 q 302 744 295 736 q 314 760 309 752 q 311 793 311 783 q 322 871 311 818 q 350 903 337 892 q 383 914 363 914 q 421 886 409 906 q 447 832 433 867 q 443 750 447 777 q 408 701 429 722 q 406 696 406 696 l 428 676 l 429 676 "},"R":{"ha":764,"x_min":16,"x_max":745,"o":"m 193 4 l 322 5 q 317 41 322 20 q 308 223 311 124 q 304 431 304 322 q 304 467 304 443 q 302 503 304 492 q 250 500 279 503 q 205 497 222 498 q 198 495 201 496 q 193 493 195 495 q 193 404 193 463 q 192 314 193 344 q 163 17 190 147 q 165 12 165 14 q 165 8 165 9 l 193 4 m 682 -4 l 730 -4 q 733 1 733 -1 q 731 9 733 5 q 727 17 729 13 q 724 24 724 22 q 691 183 703 91 q 668 356 680 276 q 633 503 656 436 q 607 485 619 493 q 584 469 594 477 q 567 450 574 461 q 584 352 580 404 q 589 237 589 300 q 588 178 589 201 q 587 127 588 155 q 595 4 587 54 l 682 -4 m 446 171 q 529 313 509 223 q 539 396 539 362 q 505 514 539 471 q 475 539 495 527 q 439 554 447 551 l 435 554 q 432 546 433 552 q 429 538 430 540 q 429 516 429 524 q 428 498 429 508 q 432 496 429 498 q 437 493 436 494 l 453 475 q 476 401 476 448 q 464 345 476 374 q 449 323 450 324 l 439 328 l 424 372 l 415 386 l 378 380 q 374 372 375 379 q 372 350 373 366 q 380 321 374 342 q 392 285 385 299 q 396 266 392 277 q 401 253 401 255 q 412 227 411 235 q 419 212 417 222 l 437 178 q 444 171 439 174 l 446 171 m 321 389 q 392 399 338 389 q 435 408 413 403 q 457 416 445 414 q 464 425 462 418 q 446 465 461 456 q 321 436 382 442 q 317 419 317 428 q 318 406 317 412 q 318 390 318 400 q 319 390 319 390 q 321 389 320 389 m 174 396 q 178 399 178 396 l 179 453 q 171 459 178 456 q 163 463 163 462 l 150 481 q 154 497 150 493 q 231 514 184 511 q 321 519 278 517 l 342 519 q 347 564 347 525 q 317 563 329 564 q 292 562 306 563 q 118 557 232 562 q 20 547 49 557 q 21 534 20 543 q 22 522 22 526 q 146 407 74 433 q 158 403 151 406 q 174 396 164 400 m 364 453 l 412 465 l 414 593 l 359 583 l 358 456 q 364 453 358 453 m 549 461 q 690 600 637 528 q 745 774 743 673 q 667 964 743 868 q 664 965 665 964 q 660 966 663 966 q 492 1050 613 1018 q 326 1069 425 1067 q 154 1059 230 1069 q 153 1058 154 1059 q 151 1055 152 1057 q 174 969 167 1014 q 183 864 180 924 q 189 774 186 804 q 212 779 196 774 q 239 785 229 785 q 257 789 247 787 q 281 794 267 791 q 300 796 289 794 q 319 798 311 798 q 328 806 326 801 q 346 951 332 888 q 357 996 349 981 q 400 1000 370 1000 q 467 987 433 1000 q 487 979 477 984 q 510 965 496 973 q 581 866 563 932 q 599 715 599 800 q 598 693 598 707 q 596 668 598 680 q 581 593 594 629 q 559 556 572 572 q 522 518 546 541 l 547 460 q 548 461 548 460 q 549 461 549 461 m 538 554 q 572 628 567 590 q 529 694 561 667 q 450 749 496 722 q 446 747 447 749 l 441 697 q 534 554 500 650 l 538 554 m 200 570 l 306 571 q 314 615 312 595 q 318 671 316 636 q 321 722 319 705 q 309 725 317 725 q 292 724 302 725 q 272 721 281 722 q 226 705 250 715 q 193 693 201 696 l 195 576 q 200 570 195 570 m 25 583 l 178 589 l 179 636 l 129 647 l 131 661 q 142 669 134 667 q 235 721 178 705 q 358 736 293 736 l 366 783 q 332 786 342 786 q 189 761 280 786 q 126 730 142 743 q 16 603 43 677 l 16 589 q 25 583 18 583 m 334 593 q 385 601 351 595 q 443 614 420 606 q 484 633 466 621 q 444 671 469 656 l 329 635 l 330 595 q 334 593 332 595 m 366 659 l 422 675 q 428 700 426 684 q 432 720 431 715 q 456 806 440 779 l 458 806 l 471 798 l 479 742 l 530 708 q 536 717 536 708 q 539 743 539 733 q 522 831 539 779 q 483 903 509 871 q 422 951 456 935 q 392 863 403 911 q 374 753 380 815 q 364 659 368 690 l 366 659 "},"S":{"ha":707,"x_min":14,"x_max":676,"o":"m 298 0 q 452 18 372 0 q 527 53 490 30 q 592 107 564 77 q 640 172 621 137 q 676 323 676 246 q 639 454 676 401 q 575 505 608 494 l 582 461 q 609 426 600 439 q 618 386 618 413 q 587 342 614 358 q 558 335 575 335 q 513 346 540 335 q 484 377 494 358 q 470 417 474 397 q 461 468 465 438 l 432 468 q 431 446 431 467 q 427 443 431 447 q 437 395 431 428 q 453 339 444 363 q 472 292 464 312 q 485 250 479 273 q 490 204 490 227 q 436 129 483 163 q 411 118 434 127 q 375 102 388 108 q 258 83 318 83 q 135 118 181 83 q 90 221 90 153 q 147 306 102 275 q 193 318 169 318 q 250 304 222 318 q 260 295 254 300 q 269 286 267 291 q 290 231 290 263 q 258 186 283 203 q 253 230 257 212 q 236 256 248 247 q 191 272 218 272 q 170 269 176 272 q 126 224 135 256 q 139 167 126 186 q 170 139 162 142 q 211 132 186 132 q 278 153 251 132 q 313 195 302 170 q 325 250 325 220 q 264 349 325 309 q 171 363 235 363 q 39 271 79 347 q 21 216 26 248 l 14 210 q 15 209 14 210 q 18 207 17 208 q 68 74 21 117 q 155 24 104 43 q 260 3 207 5 q 298 0 274 3 m 419 389 q 420 390 420 389 q 421 390 420 390 l 419 432 q 394 453 402 439 q 382 491 386 468 q 376 529 378 515 l 376 542 q 374 545 374 542 l 340 543 q 341 519 340 531 q 343 497 342 507 q 344 482 344 488 q 345 467 345 477 q 397 400 351 425 q 419 389 408 397 m 494 389 q 553 419 532 394 q 566 460 566 435 q 561 489 566 470 q 554 521 557 508 q 526 563 545 547 q 482 586 507 580 q 471 587 477 586 q 461 589 465 589 l 468 551 q 528 486 510 545 q 515 436 528 447 q 498 431 507 433 q 482 428 490 429 q 490 392 482 406 q 493 389 492 389 l 494 389 m 325 472 q 327 473 326 472 q 329 473 329 473 l 329 513 l 293 539 q 252 614 261 572 q 271 656 252 644 q 278 659 274 657 q 286 663 282 661 q 288 667 288 663 q 262 694 273 690 q 220 659 241 692 q 214 623 214 637 q 252 525 214 565 q 280 496 266 507 q 325 472 295 486 m 401 475 l 507 484 l 501 515 q 498 518 501 515 l 392 509 l 399 475 l 401 475 m 428 521 l 452 526 q 412 654 452 599 q 388 677 401 669 q 353 694 376 684 q 379 633 354 671 q 421 528 414 606 q 428 521 425 521 m 375 557 l 399 559 l 395 595 l 278 595 q 275 587 275 591 q 277 577 275 583 q 282 568 279 572 q 286 559 284 564 l 375 557 m 205 559 l 207 559 l 205 595 q 147 677 147 627 q 171 720 151 709 q 210 728 189 728 q 258 718 231 728 q 264 715 262 717 q 271 711 267 714 q 330 607 302 683 l 363 608 q 366 616 366 614 q 361 633 366 623 q 357 650 357 644 q 275 761 336 701 q 225 807 245 783 q 197 864 206 831 q 250 983 197 932 q 339 1023 286 1008 q 385 1026 369 1026 q 415 1023 406 1026 q 478 1017 429 1023 q 546 986 516 1010 q 593 928 576 962 q 586 852 593 873 q 553 804 576 825 q 504 774 531 782 q 485 771 490 771 q 436 789 454 771 q 406 857 408 815 q 428 900 413 888 q 481 843 446 852 q 550 871 533 843 q 561 907 561 886 q 554 935 561 921 q 507 975 536 972 q 400 933 440 975 q 367 840 367 898 q 415 755 378 781 q 488 733 439 736 q 518 736 509 733 q 608 802 578 755 q 635 903 635 851 q 616 979 635 943 q 579 1025 603 1006 q 529 1053 555 1044 q 488 1067 514 1061 q 432 1080 462 1074 q 414 1082 431 1080 q 387 1084 398 1084 q 351 1086 375 1086 q 216 1060 281 1086 q 104 987 151 1034 q 58 925 81 962 q 18 778 18 852 q 139 586 37 654 q 205 559 176 564 "},"T":{"ha":625,"x_min":33,"x_max":631,"o":"m 243 3 l 385 7 q 379 44 385 16 q 374 93 374 73 l 374 252 q 375 283 374 266 q 377 312 376 300 q 378 338 377 323 q 370 376 378 362 q 349 407 363 389 q 346 408 347 408 q 345 408 345 408 l 322 387 q 286 424 298 398 l 240 489 l 214 454 q 260 297 260 404 q 254 222 259 276 q 245 114 248 169 q 236 46 239 58 q 231 26 235 37 q 227 5 227 15 l 243 3 m 204 326 l 249 374 l 233 411 l 205 387 q 196 397 200 391 q 183 412 191 403 q 177 425 182 419 q 172 436 173 431 q 199 468 186 452 q 219 492 212 484 q 239 511 226 500 q 248 519 248 516 l 228 554 q 216 547 221 551 q 200 531 210 542 q 184 517 191 521 q 162 492 178 508 q 137 464 146 475 q 122 439 127 452 l 201 325 q 203 326 202 326 q 204 326 203 326 m 421 339 l 422 339 l 515 439 l 482 489 q 452 460 471 486 l 465 435 l 429 395 l 421 397 l 359 476 l 334 444 q 343 428 335 438 q 353 416 352 418 q 388 376 363 406 q 419 339 412 347 l 421 339 m 302 431 q 378 519 326 453 q 371 538 378 530 q 354 555 363 547 l 309 504 l 294 493 l 279 468 q 288 448 281 457 q 302 431 294 439 m 412 431 l 522 564 l 452 668 l 443 665 l 412 625 l 431 587 q 439 594 435 587 q 447 602 443 600 q 469 575 459 598 q 451 545 463 559 q 421 510 439 530 q 393 473 403 489 q 392 473 393 473 q 390 471 390 472 q 386 464 389 470 l 411 431 l 412 431 m 286 503 l 313 536 q 267 604 302 560 q 227 656 232 648 l 218 661 l 157 595 l 135 566 l 170 517 l 197 546 l 182 572 l 208 597 q 252 546 227 582 q 285 501 277 511 q 286 502 286 502 q 286 503 286 503 m 411 510 q 412 511 412 511 q 414 511 413 511 l 439 543 q 419 585 435 553 q 395 640 404 616 q 387 696 387 664 l 387 796 q 390 844 389 812 q 392 889 391 875 q 397 994 395 959 q 408 999 400 999 q 422 996 415 996 q 467 979 448 989 q 512 952 487 968 q 557 922 536 936 q 581 903 566 917 q 604 884 596 888 l 631 1071 q 596 1072 619 1072 q 548 1073 580 1073 q 500 1074 516 1073 q 267 1073 422 1073 q 33 1072 111 1073 q 36 994 33 1045 q 40 901 39 943 q 45 888 43 892 q 50 879 47 883 q 67 894 58 883 q 83 908 76 905 q 134 947 111 935 q 216 987 157 959 q 236 994 232 992 l 264 994 q 267 890 267 961 q 264 786 264 821 q 261 732 262 751 q 258 697 260 713 q 289 597 258 628 q 295 590 292 595 q 301 583 298 585 l 329 606 q 338 599 334 603 q 347 589 342 595 q 357 575 351 583 q 410 510 390 540 l 411 510 "},"U":{"ha":775,"x_min":20,"x_max":761,"o":"m 304 -12 q 399 -4 353 -12 q 482 28 435 3 q 515 52 499 37 q 552 91 531 66 q 587 129 572 115 l 590 129 l 591 109 l 589 3 l 761 5 q 736 126 741 71 q 734 171 734 140 q 735 209 735 192 q 736 254 736 227 q 722 385 736 334 q 709 399 716 391 q 692 418 702 408 l 669 396 l 669 390 q 681 378 675 385 q 686 364 686 371 q 684 354 686 362 q 677 345 681 351 q 664 342 673 342 q 633 349 657 342 q 595 387 621 363 q 555 428 570 411 l 529 407 q 525 399 528 406 q 541 381 530 391 q 555 367 552 372 q 581 339 574 355 q 589 303 588 323 q 591 262 591 282 q 562 171 585 212 q 500 109 538 129 q 456 89 488 100 q 370 74 418 74 q 289 87 327 74 q 277 94 275 94 l 253 117 l 244 122 q 217 172 224 144 q 208 242 210 200 q 206 316 207 284 q 200 371 205 347 l 187 412 l 167 401 l 155 393 q 153 385 153 392 q 163 345 163 375 q 149 330 151 331 q 113 345 121 330 q 110 357 110 349 q 117 379 110 366 q 153 413 130 391 q 192 447 176 435 q 165 473 188 456 q 123 444 150 468 q 93 418 97 420 q 80 405 90 416 q 62 387 71 393 q 61 325 61 367 q 82 167 61 237 q 158 50 103 96 q 282 -9 210 6 q 304 -12 290 -9 m 321 338 q 361 379 338 358 q 402 416 385 399 q 437 454 420 432 l 414 476 q 386 456 398 466 q 360 433 374 446 q 334 407 347 419 q 322 396 326 397 l 300 412 l 290 397 q 278 383 280 387 l 319 336 q 320 337 320 337 q 321 338 321 338 m 447 349 q 568 464 514 406 q 571 468 572 468 l 543 494 l 453 406 l 433 418 l 431 418 l 406 393 l 447 349 m 220 353 l 325 452 l 325 456 l 298 484 l 264 452 q 258 449 264 452 q 235 425 245 435 q 217 404 224 415 q 210 380 210 393 q 214 364 210 372 q 216 357 216 359 q 218 353 217 355 l 220 353 m 635 368 q 651 404 640 391 q 694 445 663 416 q 733 490 725 473 q 724 508 730 500 q 709 527 718 516 q 688 550 699 537 q 681 547 686 550 l 660 530 q 660 529 660 530 q 659 526 659 528 l 681 498 l 597 410 q 615 385 599 400 q 633 368 632 370 l 635 368 m 225 441 q 244 454 237 441 q 250 459 247 457 q 253 464 253 462 l 253 468 l 180 543 q 172 535 178 543 q 160 524 165 528 q 157 519 160 523 q 153 514 153 516 l 155 507 l 225 441 m 103 443 l 107 443 l 134 465 l 111 494 l 195 581 q 196 585 195 583 l 158 625 q 143 593 153 606 q 117 567 132 581 q 82 534 102 553 q 60 510 79 530 l 56 500 l 102 443 l 103 443 m 472 443 l 503 478 l 433 545 q 404 509 404 526 q 426 493 414 503 q 450 466 437 482 q 471 443 464 450 l 472 443 m 355 446 l 379 478 l 319 542 l 289 513 l 292 504 l 354 446 l 355 446 m 611 447 l 637 473 q 614 502 623 490 q 593 526 604 513 q 566 553 582 538 q 554 547 558 551 q 547 538 550 543 q 538 526 543 533 q 556 502 546 513 q 581 477 566 492 q 607 450 597 462 q 611 447 610 449 m 253 496 l 342 583 l 357 574 l 378 593 q 364 612 374 603 q 339 632 353 621 q 320 620 328 626 q 300 602 313 614 q 277 580 287 590 q 254 559 267 570 q 247 551 251 555 q 238 544 242 547 q 231 535 235 540 q 221 524 227 530 l 250 494 q 252 495 251 495 q 253 496 252 496 m 497 509 l 533 543 l 581 596 l 571 639 q 557 628 564 637 q 543 615 550 618 q 505 577 530 602 q 467 536 479 553 l 494 507 q 496 508 495 508 q 497 509 496 509 m 379 510 q 389 519 383 513 q 401 530 395 526 q 424 557 412 542 q 445 581 436 572 q 467 596 454 590 l 489 578 l 511 607 l 475 652 q 469 654 473 654 q 463 654 465 654 q 392 583 447 640 q 373 565 388 578 q 354 539 357 551 l 378 510 l 379 510 m 625 518 l 636 519 q 681 565 648 535 q 726 612 713 595 q 725 768 726 714 q 726 877 726 805 q 728 985 726 949 q 740 1026 730 1000 q 753 1068 749 1051 q 700 1069 737 1069 q 644 1069 663 1069 q 621 1069 636 1069 q 597 1068 605 1069 q 570 1067 588 1067 q 543 1067 552 1067 q 573 953 565 1016 q 581 806 581 890 q 582 749 582 786 q 586 654 582 691 q 603 579 589 616 q 606 576 603 578 l 633 600 q 637 607 637 604 q 627 646 627 620 q 633 656 630 652 q 642 661 636 661 q 675 652 668 659 q 679 637 679 644 q 675 619 679 628 q 633 576 659 602 q 600 543 606 551 q 625 518 610 524 m 240 562 l 267 590 q 236 625 260 602 q 203 664 212 648 q 201 775 203 737 q 203 910 203 821 q 205 1043 203 999 q 209 1055 205 1045 q 212 1068 212 1065 q 144 1072 180 1072 l 22 1072 q 20 1067 20 1069 q 21 1059 20 1063 q 26 1050 23 1055 q 31 1042 28 1046 q 61 950 61 1011 q 60 912 61 938 q 58 873 58 886 q 60 846 58 856 q 59 809 59 833 q 58 774 59 785 q 60 743 58 751 q 60 688 60 724 q 61 633 60 652 q 77 600 61 618 q 100 575 93 580 l 122 599 q 114 612 121 602 q 107 635 107 623 q 122 652 111 647 q 174 628 155 652 q 199 602 181 621 q 239 562 218 583 l 240 562 "},"V":{"ha":840,"x_min":20,"x_max":827,"o":"m 297 0 l 538 1 q 555 80 547 26 q 574 164 564 134 q 606 280 583 210 q 637 387 629 350 q 645 413 644 408 q 652 440 646 418 q 660 476 657 463 q 696 621 673 541 q 736 761 718 702 q 783 910 755 819 q 827 1061 811 1001 l 700 1061 q 641 793 665 894 q 585 595 617 692 q 577 554 583 574 q 562 506 572 535 q 551 473 553 477 l 534 511 l 501 587 l 463 673 q 429 614 438 638 q 447 558 435 593 q 461 519 460 524 q 503 423 491 452 q 517 359 514 393 q 488 289 507 337 q 459 215 469 241 q 431 160 448 189 q 425 163 427 160 q 420 168 422 165 q 416 174 418 171 q 371 277 392 218 q 344 358 351 331 q 336 414 336 385 q 363 496 336 458 l 332 566 l 304 513 l 300 513 q 267 620 285 553 q 239 718 248 688 q 165 1051 188 895 q 157 1059 159 1058 l 24 1054 q 20 1046 20 1052 q 21 1041 20 1044 q 22 1034 22 1038 q 23 1029 23 1031 q 24 1023 24 1027 q 41 966 30 1002 q 65 893 53 931 q 85 835 78 856 q 106 774 86 831 q 135 696 126 718 q 151 643 140 675 q 167 595 163 610 q 231 382 193 501 q 265 245 250 303 q 288 135 279 188 q 290 111 290 123 q 290 90 290 98 q 291 48 291 76 q 292 7 291 21 q 297 0 292 0 m 421 407 l 424 407 q 441 437 426 417 q 460 464 456 456 q 465 482 465 471 q 458 503 465 491 q 452 521 455 508 q 446 538 448 534 l 429 510 q 410 546 420 519 q 395 582 401 572 q 371 644 389 600 q 362 667 370 650 q 355 694 355 684 q 358 707 355 703 q 368 732 368 726 l 350 774 l 346 774 q 322 725 340 757 q 300 684 304 694 q 330 613 317 644 q 364 534 342 583 q 379 498 374 508 q 418 407 405 433 l 421 407 m 519 586 q 535 615 524 596 q 553 650 547 635 q 562 681 560 665 q 538 738 555 703 q 515 796 522 773 q 475 886 500 830 q 446 829 449 854 q 475 761 458 801 q 503 693 492 722 q 507 676 507 684 q 503 654 507 667 q 498 635 498 642 q 507 614 498 622 q 518 586 512 597 l 519 586 m 404 595 q 424 631 418 619 q 445 671 428 647 q 468 706 462 695 q 475 734 475 718 q 452 785 460 774 l 379 654 l 404 595 m 395 713 q 410 737 397 717 q 424 768 424 757 q 421 779 424 771 q 404 820 414 796 q 379 875 393 844 q 363 923 374 899 q 342 972 353 947 q 326 1018 331 998 q 358 1021 330 1021 q 374 996 367 1010 q 391 958 382 981 q 407 924 400 935 q 411 921 407 923 q 435 972 431 945 q 397 1057 408 1028 l 262 1054 q 257 1046 258 1052 l 393 714 q 394 714 394 714 q 395 713 395 713 m 524 817 l 652 1059 q 648 1063 652 1059 l 515 1063 q 508 1061 513 1061 q 501 1059 503 1061 q 485 1019 496 1038 q 451 967 473 1000 q 419 913 429 935 q 408 869 408 892 q 418 829 408 848 q 421 825 420 825 q 425 827 424 825 l 536 1026 l 572 1026 q 576 1018 576 1026 q 551 970 566 995 q 524 923 536 945 q 497 871 512 901 l 521 815 q 522 816 522 816 q 524 817 523 817 "},"W":{"ha":1222,"x_min":14,"x_max":1208,"o":"m 856 1 q 894 121 871 50 q 950 298 917 193 q 997 451 983 404 q 1034 572 1012 498 q 1079 728 1065 681 q 1122 873 1093 774 q 1140 931 1133 907 q 1154 974 1147 956 q 1166 1009 1157 994 q 1191 1046 1175 1025 q 1208 1071 1206 1067 l 987 1071 q 983 1068 986 1071 q 993 985 993 1029 q 983 893 993 947 q 948 768 968 840 q 907 620 928 696 q 870 489 886 544 q 833 374 854 434 q 828 371 833 374 q 831 368 828 368 l 821 321 l 808 281 l 803 281 q 767 350 787 313 q 718 440 747 388 q 677 515 688 493 q 650 575 666 536 q 646 574 647 575 l 623 524 q 619 509 619 518 q 631 473 619 498 q 715 300 682 370 q 786 150 749 230 q 854 0 823 71 q 856 1 855 1 q 856 1 856 1 m 403 7 l 521 298 l 545 361 q 503 439 530 402 q 490 417 497 434 q 478 393 484 400 q 454 341 468 372 q 436 301 441 310 l 432 301 q 400 408 417 342 q 371 503 382 473 q 297 762 357 558 q 264 876 281 822 q 257 956 257 920 q 275 1050 257 1010 q 273 1054 275 1053 q 222 1059 257 1059 l 131 1059 q 73 1057 111 1057 q 16 1054 35 1057 q 15 1052 15 1053 q 14 1050 14 1051 q 57 979 38 1018 q 92 899 76 940 q 123 810 107 857 q 158 711 140 762 q 193 610 177 654 l 403 7 m 615 273 l 618 273 l 667 378 l 636 432 q 634 433 635 433 q 632 433 633 433 l 615 396 l 574 464 l 568 471 q 557 495 563 483 q 545 519 551 507 q 533 543 539 531 q 525 558 532 547 q 518 578 518 569 q 524 593 519 582 q 533 614 530 604 q 536 636 536 623 q 523 663 529 650 q 509 686 517 675 q 492 661 500 675 q 479 634 485 646 q 464 603 473 621 q 453 582 455 585 q 464 559 456 574 q 476 533 472 544 q 543 405 498 497 q 614 272 587 313 q 615 273 614 273 q 615 273 615 273 m 587 472 q 623 553 602 506 q 653 627 644 600 q 638 657 646 637 q 625 685 630 676 q 619 694 621 692 l 615 694 q 600 653 608 672 q 574 599 591 634 q 549 547 556 564 l 586 472 l 587 472 m 713 476 l 764 585 l 644 812 l 640 812 q 632 793 638 804 q 625 779 627 783 q 614 749 614 767 q 625 715 614 730 q 675 621 660 654 q 690 549 690 587 q 688 521 690 530 q 710 476 699 498 l 713 476 m 566 616 q 579 642 566 620 q 591 676 591 663 q 589 689 591 681 q 573 717 582 701 q 559 741 564 732 q 507 850 538 787 q 458 947 475 913 q 439 983 448 967 q 425 1010 431 999 q 428 1015 425 1013 l 458 1015 q 460 1015 459 1015 q 463 1014 461 1015 l 559 838 q 566 836 561 836 q 576 855 568 840 q 590 882 585 870 q 595 905 595 893 q 507 1063 543 1003 l 349 1060 q 564 615 406 937 q 565 616 564 616 q 566 616 565 616 m 586 725 l 587 725 q 610 779 591 733 q 647 854 623 809 q 684 929 672 899 q 703 968 692 943 q 720 1005 713 993 q 739 1028 726 1017 l 757 1028 q 761 1018 761 1028 q 725 944 752 994 q 685 862 699 894 q 672 796 672 829 q 700 741 687 771 l 705 741 q 739 824 722 785 q 778 918 755 864 q 811 998 800 971 q 838 1071 822 1025 l 690 1064 l 555 779 l 583 725 l 586 725 "},"X":{"ha":642,"x_min":14,"x_max":628,"o":"m 446 0 l 619 0 q 590 72 610 24 q 560 143 570 120 q 524 228 550 166 q 355 593 487 314 q 345 583 349 590 q 337 566 341 576 q 328 551 333 557 q 345 500 329 532 q 366 456 361 467 q 380 423 370 444 q 398 384 391 401 q 406 350 405 366 q 395 339 400 342 q 372 346 384 339 l 354 390 q 347 392 353 392 l 339 387 q 347 412 339 395 q 354 439 354 429 q 346 458 354 448 q 338 470 341 463 q 334 479 335 478 q 316 457 323 471 q 298 422 309 443 q 289 398 297 419 q 273 365 281 377 q 254 346 265 353 q 241 342 245 343 q 229 368 229 346 q 243 395 236 379 q 261 435 250 412 q 256 450 260 441 q 252 463 252 459 q 244 475 250 467 q 239 489 239 484 q 238 490 239 490 q 236 492 237 491 q 226 474 233 488 q 216 457 219 460 q 211 444 215 452 q 205 431 207 435 q 154 319 175 365 q 103 213 132 274 q 54 108 75 153 q 14 11 34 63 q 16 8 14 11 l 45 8 l 189 8 q 196 35 193 20 q 204 71 199 50 q 228 144 210 99 q 252 212 247 189 q 328 374 306 336 l 332 374 q 326 349 326 363 q 331 325 326 336 q 347 294 335 314 q 363 262 358 274 q 441 33 417 165 q 443 1 441 11 q 446 0 444 1 m 334 378 l 336 383 q 334 378 334 378 m 286 424 l 313 479 q 277 547 309 491 q 244 636 244 603 q 248 657 244 645 l 222 703 q 201 662 214 690 q 184 625 189 633 l 285 422 q 286 424 286 423 q 286 424 286 424 m 302 524 q 317 549 309 533 q 334 583 324 564 q 350 616 336 591 q 364 656 364 641 q 355 681 364 667 q 349 697 353 686 q 342 713 345 708 q 321 673 332 699 q 301 636 310 647 q 287 609 298 629 q 272 574 276 589 l 302 524 m 406 538 q 437 623 437 577 q 399 725 437 669 q 355 815 378 764 q 318 892 332 865 l 313 892 q 298 865 310 884 q 281 836 286 846 q 275 811 275 826 q 296 766 289 781 q 300 764 298 764 q 307 771 304 764 q 313 779 309 778 q 395 611 363 709 q 389 596 394 607 q 383 574 383 585 q 393 556 387 567 q 403 536 399 545 q 404 537 404 537 q 406 538 405 538 m 281 640 l 314 701 q 276 792 294 748 q 242 883 258 837 q 216 974 226 929 q 207 1010 212 987 q 197 1044 201 1033 l 29 1044 q 67 977 47 1010 q 114 902 87 945 q 155 835 142 859 q 241 703 212 749 q 278 642 253 682 q 279 642 279 642 q 281 640 279 642 m 422 724 q 428 725 427 724 q 628 1039 494 836 l 628 1042 l 454 1043 q 392 789 444 886 q 419 724 397 766 l 422 724 "},"Y":{"ha":860,"x_min":16,"x_max":846,"o":"m 449 0 l 488 1 q 490 21 490 7 q 490 36 490 31 q 489 49 490 41 q 488 70 488 58 q 486 94 487 81 q 486 155 486 115 q 485 215 486 195 q 488 296 486 243 q 490 376 489 350 q 489 384 490 380 q 488 392 489 388 q 489 411 488 402 q 489 432 489 419 q 490 436 490 435 q 490 440 490 438 q 479 452 484 450 l 450 496 l 422 472 q 413 478 418 473 q 405 489 408 483 q 399 498 401 496 q 392 503 393 501 l 339 566 l 319 549 q 342 582 321 559 q 366 610 362 605 l 339 643 q 283 579 317 621 q 231 515 250 536 l 301 412 l 310 414 q 321 426 313 418 q 332 443 328 435 q 336 457 336 450 q 330 473 336 467 q 321 490 321 490 q 312 484 316 490 q 304 476 309 477 q 281 504 289 488 q 294 524 285 515 q 310 542 302 533 q 313 545 313 545 q 315 543 315 545 l 311 532 q 359 421 353 475 q 363 387 363 410 q 366 357 364 363 q 363 281 363 332 q 364 239 363 258 q 364 189 364 220 q 336 4 364 76 l 449 0 m 532 415 q 615 513 566 448 q 579 558 606 541 l 551 529 l 566 507 l 543 478 q 516 507 532 488 q 497 529 500 527 q 477 556 488 541 q 465 572 467 570 q 453 560 460 567 q 442 547 446 553 q 437 534 438 541 l 446 525 q 475 485 454 509 q 501 450 495 460 q 515 434 504 448 q 532 415 526 421 m 526 518 l 627 632 l 596 685 l 846 991 q 844 994 846 991 l 653 1003 q 648 1002 650 1003 q 644 915 648 951 q 621 851 639 878 q 500 703 550 758 q 498 699 500 700 l 525 671 q 531 674 529 671 q 534 681 533 677 q 543 682 536 682 l 570 643 l 498 551 l 517 525 q 518 521 517 522 l 524 517 q 525 518 524 517 q 526 518 526 518 m 399 522 q 416 539 406 528 q 432 557 425 551 q 451 581 436 564 q 471 607 465 598 q 446 646 464 630 q 425 618 438 637 q 403 591 411 600 q 387 569 398 583 q 372 547 375 555 l 386 529 l 399 522 m 511 583 l 534 619 q 436 754 508 665 q 393 715 419 748 q 398 697 393 704 q 414 676 402 690 q 418 673 416 673 q 423 677 420 673 q 428 682 426 682 q 498 587 479 625 l 511 583 m 268 587 l 297 615 q 288 633 297 621 l 288 637 q 306 657 297 647 q 326 672 315 667 q 361 636 340 663 q 390 602 382 609 l 415 632 q 358 715 397 664 q 309 783 319 767 q 252 867 274 820 q 229 964 229 914 q 232 996 229 974 q 131 1000 199 1000 q 28 1003 62 1000 q 17 999 20 1001 q 16 998 17 998 q 16 996 16 998 l 271 685 q 267 674 269 677 q 257 666 264 671 q 248 657 250 660 q 235 643 237 648 q 248 613 235 630 q 265 587 262 597 l 268 587 "},"Z":{"ha":553,"x_min":28,"x_max":525,"o":"m 72 3 q 74 5 72 3 q 75 7 75 6 l 522 5 l 525 189 l 522 189 q 512 178 517 182 q 500 170 507 174 q 484 158 493 165 q 430 134 460 146 q 365 112 399 122 q 300 95 330 102 q 250 82 270 87 q 238 81 245 82 q 224 79 231 80 q 214 78 217 78 q 201 81 210 78 q 210 131 201 97 q 220 170 219 165 q 242 236 236 218 q 260 293 248 254 q 292 386 273 331 q 304 446 304 417 q 286 510 304 479 l 256 497 q 252 498 253 497 l 210 593 q 199 602 208 600 l 163 575 q 183 496 183 533 q 170 436 183 464 q 97 215 125 293 q 60 103 90 186 q 58 94 58 98 l 28 9 l 69 8 q 71 5 71 8 q 72 3 71 3 m 342 414 l 447 481 q 445 500 447 490 q 439 521 443 510 q 433 539 435 532 q 433 541 433 540 q 431 542 432 541 l 393 517 l 399 492 q 399 490 399 491 q 397 489 399 489 l 372 472 l 370 472 l 325 579 q 325 580 325 580 q 322 581 324 581 l 281 553 l 339 414 l 342 414 m 125 472 l 170 503 l 161 542 q 150 538 158 542 q 140 534 142 534 l 126 564 q 156 591 139 579 q 190 615 173 604 q 228 640 208 627 q 207 676 222 669 l 81 587 l 117 476 q 121 473 119 475 q 125 472 123 472 m 364 514 q 486 583 408 542 q 494 593 494 591 l 452 725 q 436 722 441 725 q 395 697 414 705 l 399 654 l 403 654 l 429 667 l 446 619 l 345 551 l 361 515 q 364 514 364 515 m 241 547 l 339 611 q 326 656 339 633 q 311 648 323 655 q 286 634 298 642 q 264 619 274 626 q 244 605 261 616 q 224 583 228 593 l 239 547 l 241 547 m 371 581 l 372 581 l 403 610 q 392 684 392 642 q 405 771 392 724 q 440 867 418 818 q 482 957 463 916 q 514 1034 501 998 q 497 1036 509 1036 q 478 1038 484 1036 l 441 1038 q 182 1040 267 1040 q 32 1038 82 1040 l 35 908 q 91 932 57 917 q 155 958 125 948 q 211 970 184 968 q 238 975 222 974 q 261 979 254 977 q 282 981 271 980 q 304 982 294 981 q 322 983 315 983 q 349 983 330 983 q 350 982 349 983 q 350 979 350 981 q 328 897 340 933 q 286 779 315 861 q 277 743 277 764 q 289 690 277 722 q 292 688 292 688 l 318 700 l 370 582 q 371 582 370 582 q 371 581 371 581 m 253 633 l 286 652 q 292 660 290 656 l 243 774 q 239 777 241 774 l 122 704 l 138 654 q 161 661 147 654 q 175 667 174 667 q 177 669 176 668 q 179 672 178 671 l 172 690 q 176 697 173 694 q 184 703 178 699 q 193 708 191 706 q 202 713 197 710 q 211 717 208 715 q 229 686 220 708 q 241 660 239 664 q 253 633 248 651 "},"q":{"ha":696,"x_min":21,"x_max":621,"o":"m 493 -314 q 600 -218 567 -235 l 604 -212 q 576 -143 576 -187 l 576 439 q 599 504 576 468 q 621 541 621 541 l 616 543 l 600 545 q 510 542 541 543 q 414 551 485 543 q 319 559 355 559 q 104 479 189 559 q 21 268 21 399 q 100 64 21 144 q 304 -16 179 -16 q 492 56 435 -16 q 493 -314 492 -311 m 310 536 q 421 496 355 536 q 492 410 492 453 l 492 158 q 424 60 492 113 q 310 8 357 8 q 167 97 218 8 q 122 271 122 172 q 165 446 122 371 q 310 536 218 536 "},"w":{"ha":951,"x_min":18,"x_max":888,"o":"m 424 85 q 490 15 444 40 q 585 -9 536 -9 q 779 68 688 -9 l 782 66 l 782 0 l 888 0 q 865 94 868 24 q 865 93 865 93 q 865 200 865 93 q 864 395 865 395 q 864 380 864 395 q 888 545 867 519 l 718 545 l 715 545 q 761 503 737 522 q 782 444 782 478 l 782 123 q 728 64 782 86 q 642 47 686 47 q 485 244 485 47 q 504 397 485 326 q 558 541 518 443 l 550 545 l 387 545 l 380 542 q 415 504 380 541 q 447 443 447 471 q 415 350 447 428 q 383 224 383 272 q 410 103 383 151 q 273 49 367 49 q 119 244 119 49 q 143 400 119 330 q 211 542 161 456 l 204 545 l 114 546 q 35 542 40 546 q 71 503 36 539 q 102 441 102 471 q 60 366 102 429 q 18 236 18 302 q 66 65 18 135 q 222 -9 122 -9 q 424 85 346 -9 "},"e":{"ha":579,"x_min":18,"x_max":526,"o":"m 509 403 q 424 517 505 468 q 281 559 351 559 q 89 473 164 559 q 18 273 18 392 q 97 68 18 150 q 300 -16 178 -16 q 433 21 350 -16 q 526 103 526 61 l 522 106 q 461 72 492 89 q 346 40 400 40 q 180 111 244 40 q 119 281 119 178 q 136 399 119 345 l 507 399 l 509 403 m 146 427 q 273 536 186 536 q 410 427 374 536 l 146 427 "},"r":{"ha":596,"x_min":9,"x_max":587,"o":"m 9 543 q 77 437 77 505 q 79 326 77 400 q 81 214 81 252 q 61 0 81 26 l 176 0 q 163 106 163 21 q 163 122 163 114 l 163 229 q 289 165 225 228 q 392 53 340 110 q 492 -8 447 -8 q 587 25 543 -8 q 485 77 536 26 q 389 176 436 126 q 232 249 319 233 q 404 301 329 260 q 500 439 500 355 q 323 559 500 559 q 151 500 215 559 q 36 545 121 545 q 9 543 11 545 m 399 439 q 319 306 399 354 q 163 264 253 264 l 163 463 q 214 509 163 492 q 289 521 252 521 q 399 439 399 521 "},"t":{"ha":624,"x_min":-17,"x_max":593,"o":"m 298 509 q 138 395 203 469 q 65 215 65 311 q 127 47 65 109 q 297 -14 191 -14 q 422 8 359 -14 q 519 83 497 36 q 340 26 408 26 q 215 81 264 26 q 167 211 167 134 q 235 407 167 314 q 408 509 310 509 l 576 509 l 593 545 q 493 543 579 545 q 357 541 411 541 q 93 575 138 541 q 66 596 77 589 l 66 595 q -7 521 18 542 l -17 511 q 298 509 -11 509 "},"y":{"ha":652,"x_min":18,"x_max":579,"o":"m 90 443 q 54 367 90 432 q 18 233 18 301 q 279 -16 18 -16 q 471 68 372 -16 l 472 66 l 472 52 q 472 46 472 49 q 427 -160 472 -68 q 260 -277 367 -277 q 171 -240 203 -277 q 143 -163 143 -210 q 143 -150 143 -157 l 144 -131 l 57 -240 q 201 -311 90 -311 q 456 -195 350 -311 q 558 68 558 -82 l 558 479 q 579 545 558 521 l 408 545 l 406 545 q 452 503 429 524 q 472 444 472 482 l 472 123 q 411 57 472 81 q 313 39 366 39 q 168 97 220 39 q 119 248 119 153 q 140 400 119 330 q 203 541 157 454 l 195 545 l 103 546 q 78 546 89 546 q 25 542 31 546 q 60 503 26 539 q 90 443 90 471 "},"u":{"ha":652,"x_min":18,"x_max":579,"o":"m 90 443 q 54 367 90 432 q 18 233 18 301 q 277 -11 18 -11 q 471 68 370 -11 q 472 45 472 66 l 472 0 l 579 0 q 558 65 558 29 l 558 479 q 579 545 558 518 l 408 545 l 403 545 q 439 514 421 529 q 472 444 472 486 l 472 123 q 414 58 472 82 q 318 39 368 39 q 171 94 221 39 q 119 245 119 149 q 140 400 119 330 q 203 541 157 454 l 195 545 l 103 546 q 77 546 89 546 q 25 542 29 546 q 60 503 26 539 q 90 443 90 471 "},"i":{"ha":323,"x_min":8,"x_max":212,"o":"m 212 0 q 189 109 192 36 q 189 106 189 106 q 189 224 189 106 q 191 385 189 278 q 192 545 192 492 l 14 545 l 8 545 q 61 518 40 528 q 107 425 100 501 q 107 309 107 419 q 109 136 107 136 q 109 147 109 136 q 86 0 107 29 l 212 0 m 200 699 q 136 761 200 761 q 93 743 110 761 q 77 699 77 725 q 142 637 77 637 q 183 656 167 637 q 200 699 200 673 "},"o":{"ha":657,"x_min":18,"x_max":591,"o":"m 18 272 q 98 65 18 146 q 307 -16 179 -16 q 513 65 432 -16 q 591 272 591 146 q 511 479 591 399 q 302 559 429 559 q 97 479 176 559 q 18 272 18 399 m 306 9 q 161 100 212 9 q 119 273 119 174 q 161 447 119 374 q 304 536 211 536 q 449 447 397 536 q 490 273 490 374 q 449 100 490 172 q 306 9 399 9 "},"p":{"ha":699,"x_min":0,"x_max":636,"o":"m 81 153 q 78 -78 81 100 q 77 -244 77 -174 q 77 -309 77 -279 q 85 -325 77 -325 q 144 -289 87 -325 q 218 -243 204 -249 l 220 -241 l 215 -239 q 184 -210 195 -220 q 161 -77 161 -176 q 161 -65 161 -71 l 163 57 q 347 -16 220 -16 q 555 65 475 -16 q 636 273 636 146 q 559 482 636 406 q 351 559 484 559 q 154 496 231 559 q 33 550 104 550 q 0 543 4 550 q 83 289 83 489 q 82 216 83 262 q 81 153 81 171 m 163 160 l 163 410 q 231 500 163 460 q 346 536 292 536 q 492 449 441 536 q 534 273 534 376 q 492 98 534 172 q 347 8 441 8 q 229 56 290 8 q 163 160 163 104 "},"a":{"ha":632,"x_min":20,"x_max":627,"o":"m 522 545 l 364 545 q 122 440 225 545 q 20 197 20 336 q 65 53 20 110 q 203 -8 115 -8 q 403 60 317 -8 q 465 16 424 32 q 541 -1 504 -1 q 590 7 561 -1 q 627 37 627 21 l 625 41 q 586 36 604 36 q 496 119 515 36 q 488 269 488 157 q 486 418 488 418 q 486 415 486 418 q 522 545 492 514 m 403 454 l 403 146 q 354 65 403 97 q 260 39 311 39 q 154 87 192 39 q 121 203 121 134 q 180 397 121 298 q 338 507 248 507 q 403 454 403 507 "},"s":{"ha":534,"x_min":5,"x_max":467,"o":"m 447 432 q 378 528 439 493 q 258 558 326 558 q 119 522 178 558 q 50 406 50 481 q 136 279 50 313 q 294 241 216 261 q 380 144 380 218 q 343 57 380 92 q 250 21 302 21 q 136 160 136 21 q 136 232 136 232 q 117 215 121 224 q 5 164 45 176 q 83 29 8 79 q 239 -16 150 -16 q 389 21 325 -16 q 467 144 467 64 q 380 264 467 228 q 222 310 301 288 q 136 406 136 339 q 235 524 136 524 q 318 497 285 524 q 355 419 355 469 q 349 376 355 406 q 330 340 340 343 q 385 396 334 342 q 447 432 419 432 "},"d":{"ha":661,"x_min":18,"x_max":595,"o":"m 479 492 q 401 543 461 525 q 304 558 353 558 q 98 476 180 558 q 18 271 18 396 q 92 66 18 146 q 292 -16 168 -16 q 479 52 406 -16 l 479 0 l 586 0 q 561 135 566 35 q 561 134 561 134 q 562 279 562 134 q 564 476 562 345 q 566 672 566 607 q 579 753 566 700 q 595 831 595 806 l 591 835 q 558 812 570 822 q 386 729 481 753 l 383 728 q 461 671 454 677 q 481 576 481 644 l 479 492 m 297 8 q 154 98 205 8 q 113 272 113 174 q 154 444 113 371 q 297 534 205 534 q 416 497 363 534 q 479 395 476 456 q 481 343 481 375 q 481 307 481 326 l 479 149 q 414 49 479 93 q 297 8 355 8 "},"f":{"ha":453,"x_min":-3,"x_max":453,"o":"m 77 -49 l 163 20 l 163 458 q 201 464 178 464 q 260 454 221 464 q 317 443 297 443 q 380 454 347 443 q 428 489 428 467 l 427 492 q 403 490 419 492 q 375 488 385 488 q 328 498 359 489 q 278 507 296 507 q 215 493 256 507 q 165 479 174 479 l 163 484 l 163 627 q 189 739 163 685 q 273 804 221 804 q 330 745 330 804 q 325 711 330 733 q 321 682 321 693 q 321 676 321 679 l 321 676 l 321 677 q 416 753 368 753 q 447 750 422 753 l 453 750 q 392 811 453 781 q 302 839 338 839 q 193 799 252 839 q 106 758 135 758 q 65 762 92 758 q 24 766 37 766 q -3 765 24 766 q 37 721 18 743 q 77 623 77 672 l 77 -49 "},"g":{"ha":671,"x_min":-5,"x_max":576,"o":"m 0 509 q 103 505 46 505 q 199 509 135 505 q 293 509 261 509 q 102 401 175 481 q 21 200 21 317 q 87 37 21 94 q 258 -14 150 -14 q 453 83 361 -14 l 454 64 q 454 53 454 58 q 424 -154 454 -60 q 282 -293 378 -293 q 184 -260 227 -293 q 140 -170 140 -224 q 153 -113 140 -146 q 168 -58 167 -75 l 167 -58 q 106 -119 150 -58 q 26 -204 57 -191 l 25 -207 q 121 -289 58 -257 q 245 -322 184 -322 q 440 -240 349 -322 q 576 244 576 -119 q 555 467 576 393 q 509 258 528 359 q 418 98 485 176 q 268 9 342 9 q 155 77 195 9 q 122 211 122 132 q 204 424 122 339 q 415 509 288 509 l 555 509 l 574 545 q 485 543 557 545 q 366 541 411 541 q 149 570 195 541 q 115 600 126 589 l 114 600 q 52 557 100 587 q -5 511 9 529 l 0 509 "},"h":{"ha":685,"x_min":-20,"x_max":589,"o":"m 77 618 l 77 65 q 56 0 77 29 l 182 0 q 163 65 163 35 l 163 406 q 222 485 163 453 q 325 513 275 513 q 468 419 422 513 q 503 240 503 349 q 472 0 503 138 l 561 0 q 589 249 589 142 q 368 553 589 553 q 241 524 313 553 q 167 494 168 494 l 163 501 l 163 672 q 176 753 163 700 q 192 831 192 806 l 189 835 q 106 787 182 833 q -18 729 28 743 l -20 728 q 43 685 37 690 q 77 618 77 656 "},"j":{"ha":325,"x_min":9,"x_max":193,"o":"m 28 -319 l 29 -319 q 150 -183 103 -290 q 192 0 192 -90 l 192 545 l 16 545 l 9 543 q 82 504 72 514 q 106 429 106 482 l 106 0 q 86 -164 106 -87 q 26 -319 69 -221 l 28 -319 m 193 699 q 127 761 193 761 q 86 743 103 761 q 69 699 69 725 q 134 637 69 637 q 176 656 160 637 q 193 699 193 673 "},"k":{"ha":664,"x_min":-20,"x_max":567,"o":"m 77 618 l 77 65 q 56 0 77 29 l 182 0 q 163 65 163 35 l 163 332 q 245 347 163 347 q 429 250 366 347 q 479 60 479 172 q 479 43 479 52 l 478 0 l 564 0 q 567 56 567 29 q 510 269 567 180 q 323 375 443 371 q 463 436 386 390 q 554 539 554 492 q 554 542 554 541 l 550 545 l 419 545 l 412 545 q 424 518 414 536 q 432 489 432 503 q 326 414 432 443 q 182 390 244 390 q 163 395 174 390 l 163 672 q 176 753 163 700 q 192 831 192 806 l 189 835 q 151 812 164 822 q -18 729 65 753 l -20 728 q 43 685 37 690 q 77 618 77 656 "},"l":{"ha":323,"x_min":8,"x_max":222,"o":"m 192 65 l 192 672 q 207 754 192 700 q 222 832 222 807 l 220 835 q 186 815 197 825 q 9 729 90 751 l 8 728 q 72 685 68 689 q 106 618 106 656 l 106 65 q 86 0 106 29 l 212 0 q 192 65 192 36 "},"z":{"ha":628,"x_min":3,"x_max":596,"o":"m 3 18 l 26 -5 q 254 110 143 110 q 386 41 317 110 q 490 -26 457 -26 q 550 32 504 -26 q 596 107 595 90 l 593 110 q 564 98 585 109 q 530 92 549 92 q 436 135 500 92 q 317 176 374 176 q 171 134 261 176 q 574 538 568 526 q 526 546 570 546 q 416 539 490 546 q 307 532 345 532 q 132 578 184 532 q 89 509 117 542 q 35 449 62 479 l 35 449 l 35 447 q 118 465 60 450 q 204 481 174 481 l 465 481 l 3 18 "},"x":{"ha":704,"x_min":-160,"x_max":667,"o":"m -160 -314 l -151 -314 q -140 -314 -146 -314 q 125 -111 -9 -314 q 289 229 218 31 q 395 78 323 150 q 549 -9 479 -9 q 621 25 575 -9 q 667 83 665 58 q 579 157 595 143 q 595 97 595 129 q 546 33 595 33 q 431 170 510 33 q 332 347 380 258 q 393 436 350 395 q 486 486 441 486 q 536 457 511 486 q 561 428 561 429 q 561 428 561 428 q 607 465 571 428 q 643 514 643 504 q 593 534 643 522 q 530 545 549 545 q 396 498 464 545 q 309 389 328 452 q 227 486 273 446 q 113 536 168 536 q 47 513 83 536 q 0 461 11 488 q 69 482 41 482 q 254 288 147 482 q -160 -314 14 -253 "},"c":{"ha":600,"x_min":21,"x_max":538,"o":"m 497 465 q 294 559 422 559 q 96 469 175 559 q 21 261 21 383 q 307 -16 21 -16 q 449 29 376 -16 q 538 142 526 77 q 457 65 496 103 q 347 31 412 31 q 176 114 239 31 q 121 301 121 189 q 157 454 121 386 q 281 536 203 536 q 368 503 342 536 q 395 412 390 475 q 452 433 410 414 q 497 465 494 454 "},"v":{"ha":616,"x_min":-3,"x_max":561,"o":"m 183 545 l 0 545 l -3 543 q 22 510 -3 541 q 50 472 50 473 q 182 196 86 418 q 282 -25 273 -17 l 561 545 l 561 545 l 425 543 q 450 517 428 538 q 465 484 465 501 q 302 100 465 450 q 220 269 262 167 q 167 443 167 393 q 179 493 167 465 q 196 539 193 525 l 183 545 "},"b":{"ha":652,"x_min":18,"x_max":587,"o":"m 201 616 q 154 532 201 583 q 65 428 85 457 q 18 264 18 351 q 98 65 18 144 q 297 -16 179 -16 q 501 85 412 -16 q 587 296 587 179 q 529 468 587 403 q 363 538 468 538 q 204 460 232 538 q 335 503 288 503 q 456 421 408 503 q 493 272 493 353 q 447 98 493 174 q 301 8 393 8 q 164 96 215 8 q 119 262 119 171 q 172 444 119 349 q 268 600 220 522 q 321 757 321 688 q 310 782 321 782 q 275 771 298 782 q 240 755 249 757 q 192 750 220 751 l 170 750 q 87 729 122 750 l 86 726 q 86 726 86 726 q 138 703 89 726 q 201 616 201 672 "},"n":{"ha":685,"x_min":-18,"x_max":589,"o":"m -18 541 q 28 504 5 521 q 77 401 68 464 q 78 283 78 385 q 79 123 78 123 q 79 136 79 123 q 56 0 78 29 l 182 0 q 163 65 163 35 l 163 406 q 224 485 163 453 q 325 511 275 511 q 468 418 422 511 q 503 237 503 347 q 472 0 503 138 l 558 0 q 589 250 589 140 q 368 553 589 553 q 241 524 317 553 q 167 496 204 510 l 163 501 q 164 539 163 539 q 164 539 164 539 q 135 555 160 555 q 69 547 114 555 q 3 539 28 539 l -18 541 "},"m":{"ha":1015,"x_min":-18,"x_max":918,"o":"m 539 0 q 564 240 564 135 q 521 461 564 404 q 659 513 566 513 q 799 419 754 513 q 832 241 832 350 q 803 0 832 140 l 888 0 q 918 252 918 144 q 688 553 918 553 q 496 494 616 553 q 366 551 469 551 q 244 524 318 551 q 168 494 171 494 l 163 501 q 164 539 163 539 q 164 539 164 539 q 135 555 160 555 q 70 547 114 555 q 3 539 26 539 l -18 541 q 32 498 9 515 q 77 399 69 461 q 78 283 78 383 q 79 129 78 129 q 79 136 79 129 q 56 0 77 29 l 182 0 q 163 65 163 35 l 163 406 q 215 484 163 452 q 311 514 262 514 q 447 411 406 514 q 478 231 478 339 q 453 0 478 132 l 539 0 "},"`":{"ha":441,"x_min":79,"x_max":285,"o":"m 79 714 q 171 646 79 697 q 283 595 260 597 l 285 596 q 207 682 282 610 q 118 753 131 753 q 91 740 103 753 q 79 714 79 728 "},"-":{"ha":612,"x_min":0,"x_max":572,"o":"m 136 431 l 0 363 l 437 363 l 572 431 l 136 431 "},"=":{"ha":612,"x_min":0,"x_max":572,"o":"m 136 472 l 0 404 l 437 404 l 572 472 l 136 472 m 136 359 l 0 292 l 437 292 l 572 359 l 136 359 "},"[":{"ha":407,"x_min":94,"x_max":359,"o":"m 94 -47 q 140 -49 110 -47 q 186 -50 171 -50 q 275 -33 229 -50 q 359 0 318 -17 l 189 0 l 189 946 l 231 939 l 359 993 l 182 993 q 119 964 146 993 q 94 899 94 935 l 94 -47 "},"]":{"ha":407,"x_min":-7,"x_max":258,"o":"m 258 986 q 212 987 243 986 q 165 989 180 989 q 77 974 122 989 q -7 939 35 956 l 164 939 l 164 -5 l 122 0 l -7 -53 l 170 -53 q 232 -25 205 -53 q 258 41 258 4 l 258 986 "},"\\":{"ha":675,"x_min":24,"x_max":618,"o":"m 24 1028 q 89 983 58 1000 q 149 911 113 968 q 195 828 180 863 l 501 97 q 547 -32 545 -4 l 618 -32 q 549 97 585 11 l 154 1031 l 85 1032 q 24 1028 29 1032 "},";":{"ha":277,"x_min":45,"x_max":168,"o":"m 45 465 q 62 422 45 440 q 106 404 81 404 q 149 422 131 404 q 168 465 168 440 q 149 509 168 490 q 106 526 131 526 q 62 509 81 526 q 45 465 45 490 m 106 114 q 62 97 81 114 q 45 54 45 81 q 71 0 45 21 q 96 -36 96 -22 q 76 -92 96 -58 q 57 -132 57 -125 l 58 -132 q 61 -132 60 -132 q 132 -57 94 -132 q 168 53 168 12 q 150 96 168 79 q 106 114 132 114 "},"'":{"ha":178,"x_min":54,"x_max":119,"o":"m 54 985 q 65 908 54 961 q 87 836 78 850 q 110 908 97 850 q 119 985 119 962 q 89 1014 119 1014 q 54 985 54 1014 "},",":{"ha":277,"x_min":45,"x_max":168,"o":"m 106 114 q 62 97 81 114 q 45 54 45 81 q 71 0 45 21 q 96 -36 96 -22 q 76 -92 96 -58 q 57 -132 57 -125 l 58 -132 q 61 -132 60 -132 q 132 -57 94 -132 q 168 53 168 12 q 150 96 168 79 q 106 114 132 114 "},".":{"ha":309,"x_min":45,"x_max":168,"o":"m 45 52 q 62 8 45 26 q 106 -9 81 -9 q 149 8 131 -9 q 168 52 168 26 q 149 94 168 77 q 106 114 131 114 q 62 94 81 114 q 45 52 45 77 "},"/":{"ha":836,"x_min":25,"x_max":762,"o":"m 639 1068 q 582 909 639 1008 l 118 106 q 25 -35 61 8 l 103 -35 q 170 106 110 3 l 762 1133 q 724 1135 750 1133 q 685 1135 699 1135 q 611 1126 616 1135 q 627 1100 612 1118 q 639 1068 639 1082 "},"~":{"ha":746,"x_min":0,"x_max":742,"o":"m 410 1 q 593 54 537 1 q 624 81 611 68 q 697 192 659 120 q 731 299 721 241 q 742 421 742 357 q 741 471 742 454 l 595 583 q 593 583 594 583 q 591 582 591 583 l 562 557 q 559 550 559 554 q 616 494 597 518 q 639 433 635 470 q 643 343 643 387 q 607 198 635 263 q 525 93 578 132 q 415 58 480 58 q 353 71 380 58 q 192 278 237 130 q 179 400 179 349 q 269 572 182 497 q 278 579 274 575 q 286 589 281 584 q 318 618 297 606 q 317 631 318 627 q 303 640 313 632 q 286 647 294 647 l 269 631 l 89 450 l 81 444 q 98 295 81 368 q 152 160 115 222 q 244 56 188 98 q 328 11 282 30 q 410 1 388 3 m 349 119 q 368 123 353 121 q 383 126 382 126 q 431 170 414 138 q 456 253 456 206 q 441 315 456 288 q 439 317 440 316 q 437 319 439 318 q 414 289 416 309 q 416 260 416 270 q 389 175 416 209 q 380 167 382 171 q 339 163 374 163 q 286 233 292 185 q 295 303 286 269 q 325 361 304 338 l 306 383 l 298 387 q 285 374 292 386 q 277 359 278 362 q 252 262 252 318 q 277 170 252 209 q 349 119 302 132 m 458 119 q 525 147 503 119 q 574 268 574 196 q 562 328 574 298 q 525 376 553 348 q 489 414 497 404 q 484 416 489 416 l 447 453 q 419 424 425 439 q 444 401 429 415 q 468 378 460 388 q 493 353 479 370 q 532 265 532 323 q 528 228 532 246 q 507 185 517 201 q 478 160 496 170 q 468 157 473 157 q 456 160 463 157 q 441 163 448 163 l 424 135 q 431 127 427 130 q 442 124 435 125 q 458 119 449 122 m 379 186 q 399 236 399 207 q 393 262 393 249 q 424 325 393 293 q 464 370 456 359 l 441 389 q 416 368 430 384 q 393 345 403 351 q 354 262 354 310 q 357 236 354 244 q 378 186 362 209 l 379 186 m 367 339 q 392 364 378 343 l 294 464 l 318 490 q 296 513 312 509 l 252 468 l 248 461 q 263 443 256 452 q 275 429 270 434 q 283 418 279 423 q 317 389 299 406 q 350 355 334 371 q 359 346 355 350 q 366 339 363 341 l 367 339 m 371 406 q 373 407 372 406 q 375 407 374 407 l 464 490 l 439 517 l 436 517 l 346 433 q 347 429 346 432 q 350 422 349 427 l 370 406 l 371 406 m 509 411 l 568 468 l 566 476 l 436 583 l 412 566 q 424 547 414 557 q 449 527 434 537 q 468 513 463 517 l 511 467 l 484 433 l 507 411 l 509 411 m 367 467 q 370 468 368 467 q 372 469 371 469 l 389 489 l 390 497 l 298 582 l 269 555 q 317 510 297 529 q 349 478 337 492 q 357 472 352 477 q 367 467 363 467 m 367 534 l 456 619 l 433 644 l 429 644 q 401 616 420 635 q 368 585 381 597 q 343 557 355 572 l 366 534 l 367 534 m 517 536 l 575 586 l 725 720 q 572 1031 718 890 q 548 1054 564 1038 q 524 1075 531 1069 q 494 1104 513 1086 q 464 1131 475 1122 q 449 1146 460 1137 q 436 1161 439 1156 q 389 1202 418 1172 q 338 1247 359 1232 q 286 1263 316 1263 l 257 1263 q 171 1260 214 1261 q 85 1258 127 1258 q 3 1261 31 1258 q 0 1258 0 1261 q 71 1216 28 1240 q 148 1173 114 1192 q 217 1136 182 1155 q 283 1095 252 1116 l 334 1071 q 335 1067 334 1068 q 335 1065 335 1065 q 334 1063 334 1064 l 273 1040 q 158 939 201 996 q 135 904 144 922 q 118 865 125 886 q 102 817 111 845 q 95 782 99 802 q 89 750 90 762 q 89 734 89 741 q 87 721 88 728 q 94 694 87 703 q 154 648 111 684 q 220 599 197 612 l 225 606 l 249 624 q 207 690 222 652 q 192 766 192 728 q 195 794 192 775 q 304 986 205 930 q 433 1017 348 1017 q 469 1004 463 1010 q 562 899 530 961 q 602 745 602 812 q 575 653 602 688 q 538 610 551 621 l 489 564 l 492 555 q 501 546 494 554 q 515 534 507 538 q 516 535 516 535 q 517 536 517 536 m 504 600 q 511 602 509 600 l 534 623 q 536 624 535 623 q 536 627 536 625 l 422 720 l 401 697 l 503 600 l 504 600 m 370 602 l 371 602 l 393 624 l 353 661 q 347 664 353 661 q 306 708 312 699 q 282 755 290 731 q 275 804 275 779 q 290 871 275 838 q 330 913 309 904 q 343 912 336 913 q 355 911 350 911 l 378 942 q 330 950 370 950 q 272 907 292 938 q 241 802 241 861 q 261 715 241 758 q 282 681 269 696 q 315 649 296 665 q 347 619 334 633 q 357 611 354 614 q 368 602 361 608 l 370 602 m 358 669 q 373 682 364 671 q 386 694 382 692 q 432 752 416 726 q 447 821 447 779 q 427 886 441 859 l 407 868 q 408 853 407 862 q 410 837 409 844 q 411 823 410 829 q 411 807 411 818 q 392 750 411 771 q 379 734 389 742 q 367 722 370 726 l 335 686 q 336 684 335 684 l 357 668 q 358 669 357 669 q 358 669 358 669 m 500 676 l 503 676 q 554 787 554 721 q 546 852 554 814 q 478 949 524 924 q 454 954 468 954 q 416 947 449 954 q 347 848 368 919 q 343 799 343 824 q 357 732 343 758 q 371 743 364 734 q 385 761 378 753 q 380 803 380 783 q 419 905 382 868 q 461 913 431 913 q 507 857 492 895 q 521 775 521 819 q 478 699 511 728 l 478 694 l 498 676 l 500 676 "},"!":{"ha":317,"x_min":29,"x_max":239,"o":"m 125 755 l 125 252 q 104 187 125 216 l 232 187 q 211 252 211 224 l 211 810 q 225 890 211 838 q 239 964 239 939 q 239 970 239 966 l 236 972 q 204 953 215 961 q 31 867 110 888 l 29 865 q 92 821 89 823 q 125 755 125 791 m 98 60 q 118 11 98 32 q 168 -8 139 -8 q 216 11 197 -8 q 236 60 236 32 q 216 110 236 89 q 168 129 197 129 q 118 110 139 129 q 98 60 98 89 "},"@":{"ha":715,"x_min":0,"x_max":667,"o":"m 258 106 q 419 201 340 106 q 465 114 454 129 q 542 61 500 61 q 639 134 606 61 q 667 261 667 189 q 575 489 667 403 q 343 574 485 574 q 104 489 203 574 q 0 261 0 400 q 104 50 0 132 q 334 -26 201 -26 q 464 0 463 -26 q 440 3 460 3 q 199 43 272 3 q 94 258 94 100 q 158 458 94 376 q 345 550 229 550 q 524 456 464 550 q 572 250 572 376 q 542 103 572 103 q 454 237 521 103 q 374 406 414 321 q 313 494 353 446 q 285 452 307 463 q 244 424 252 433 q 278 436 258 436 q 345 350 307 436 q 220 304 271 342 q 157 193 157 260 q 189 131 157 155 q 258 106 220 106 m 412 215 q 290 143 358 143 q 208 218 208 143 q 250 301 208 264 q 338 339 292 339 l 347 339 q 412 215 406 231 "},"#":{"ha":668,"x_min":5,"x_max":633,"o":"m 90 454 l 164 493 l 204 570 l 353 570 l 296 457 l 382 518 l 408 570 l 498 570 l 574 608 l 428 608 l 486 721 l 564 721 l 633 761 l 504 761 l 554 861 l 478 818 l 449 761 l 296 761 l 350 860 l 275 818 l 245 761 l 150 761 l 78 721 l 227 721 l 170 608 l 77 610 l 5 570 l 149 570 l 90 454 m 222 608 l 278 721 l 429 721 l 374 608 l 222 608 "},"$":{"ha":790,"x_min":9,"x_max":703,"o":"m 349 975 q 118 905 214 974 q 9 700 9 829 q 127 518 9 590 q 349 444 220 463 l 349 36 q 203 89 258 39 q 115 220 158 127 q 107 199 107 215 q 103 123 107 138 q 68 54 98 109 l 69 52 q 304 -3 179 -3 q 326 -3 315 -3 l 349 -1 l 349 -52 q 349 -62 349 -57 q 336 -157 349 -121 l 414 -157 q 400 -43 400 -113 l 400 4 q 408 4 404 4 q 597 90 498 4 q 703 283 703 183 q 602 457 703 389 q 400 529 521 511 l 400 945 q 550 876 485 933 q 653 746 597 833 l 654 751 q 703 905 671 843 l 703 907 q 400 975 576 968 l 400 1111 l 323 1111 q 304 1111 313 1111 q 254 1105 260 1111 q 294 1064 275 1084 q 349 975 335 1021 m 618 249 q 557 96 618 154 q 400 36 494 36 l 400 431 q 542 372 481 412 q 618 249 618 318 m 83 766 q 176 904 83 856 q 349 946 250 945 l 349 541 q 174 611 249 557 q 83 766 83 676 "},"%":{"ha":836,"x_min":9,"x_max":860,"o":"m 627 909 q 547 749 627 860 l 122 142 q 11 0 46 31 l 89 0 q 127 72 97 25 q 174 142 144 97 l 755 972 q 715 974 743 972 q 672 974 686 974 q 606 961 606 974 q 615 936 606 953 q 627 909 627 920 m 412 201 q 479 46 412 109 q 637 -14 543 -14 q 802 53 741 -14 q 860 221 860 117 q 794 375 860 314 q 635 435 729 435 q 471 368 532 435 q 412 201 412 304 m 629 5 q 522 79 561 5 q 492 212 492 139 q 525 350 492 296 q 643 416 566 416 q 750 345 711 416 q 782 211 782 285 q 747 72 782 127 q 629 5 705 5 m 9 782 q 78 627 9 689 q 235 567 143 567 q 400 633 339 567 q 460 800 460 696 q 392 956 460 893 q 232 1015 326 1015 q 70 950 131 1015 q 9 782 9 885 m 227 586 q 121 660 160 586 q 89 791 89 720 q 123 930 89 875 q 241 997 164 997 q 347 925 310 997 q 380 791 380 865 q 346 653 380 708 q 227 586 304 586 "},"^":{"ha":590,"x_min":142,"x_max":458,"o":"m 157 593 q 265 689 236 644 q 399 590 338 621 l 458 640 q 294 757 357 677 q 142 607 261 699 l 157 593 "},"&":{"ha":1432,"x_min":58,"x_max":1398,"o":"m 814 457 q 507 677 707 627 q 628 839 628 730 q 574 937 628 899 q 463 972 525 972 q 345 935 395 972 q 289 831 289 896 q 408 677 289 728 q 172 549 267 635 q 58 315 58 446 q 191 65 58 160 q 468 -20 309 -20 q 798 224 704 -20 q 1141 -3 942 -3 q 1287 20 1218 -3 q 1398 106 1375 49 q 1226 33 1333 33 q 989 161 1105 33 q 844 401 888 269 q 893 504 864 472 q 991 555 921 534 q 1042 570 1021 564 q 1055 647 1054 612 q 1095 705 1079 688 l 1089 705 q 814 457 844 608 m 374 831 q 393 908 374 873 q 458 949 416 949 q 522 908 498 949 q 542 831 542 875 q 458 701 542 745 q 399 755 422 720 q 374 831 374 791 m 464 17 q 260 110 338 17 q 187 326 187 197 q 382 615 187 497 q 458 652 432 646 q 657 507 572 614 q 765 283 730 411 q 656 100 732 174 q 464 17 571 17 "},"*":{"ha":366,"x_min":75,"x_max":293,"o":"m 201 710 l 293 802 l 278 815 l 195 732 l 195 851 l 174 832 l 174 732 l 89 815 l 75 802 l 167 710 l 75 619 l 89 606 l 174 689 l 174 570 l 195 589 l 195 689 l 278 606 l 293 619 l 201 710 "},"(":{"ha":260,"x_min":18,"x_max":232,"o":"m 232 1154 q 58 842 113 1071 q 18 472 18 677 q 40 189 18 325 q 126 -74 68 11 l 216 0 q 102 559 102 277 q 132 867 102 714 q 232 1154 168 1038 "},")":{"ha":260,"x_min":21,"x_max":236,"o":"m 21 -61 q 196 245 142 22 q 236 611 236 407 q 212 897 236 760 q 125 1166 183 1074 l 36 1092 q 151 530 151 814 q 121 227 151 378 q 21 -61 86 56 "},"_":{"ha":677,"x_min":0,"x_max":802,"o":"m 123 -24 l 0 -85 l 676 -85 l 802 -24 l 123 -24 "},"+":{"ha":667,"x_min":4,"x_max":615,"o":"m 281 363 l 281 135 l 332 164 l 332 363 l 478 363 l 615 431 l 332 431 l 332 637 l 281 606 l 281 431 l 140 431 l 4 363 l 281 363 "},"}":{"ha":354,"x_min":14,"x_max":317,"o":"m 126 829 q 123 758 126 807 q 121 685 121 710 q 216 478 121 526 q 122 281 122 429 q 125 200 122 253 q 127 119 127 144 q 72 -33 127 7 q 14 -64 33 -57 q 31 -65 18 -65 q 168 -25 113 -65 q 232 100 232 22 q 229 174 232 121 q 227 253 227 225 q 317 478 227 428 q 244 557 262 505 q 232 664 232 595 q 232 734 232 689 q 233 800 233 781 q 197 954 233 908 q 17 1019 149 1015 l 14 1018 q 110 949 90 983 q 126 829 126 918 "},"|":{"ha":216,"x_min":50,"x_max":136,"o":"m 50 0 l 136 0 l 136 1017 l 50 1017 l 50 0 "},":":{"ha":309,"x_min":45,"x_max":168,"o":"m 45 465 q 62 422 45 440 q 106 404 81 404 q 149 422 131 404 q 168 465 168 440 q 149 509 168 490 q 106 526 131 526 q 62 509 81 526 q 45 465 45 490 m 45 52 q 62 8 45 26 q 106 -9 81 -9 q 149 8 131 -9 q 168 52 168 26 q 149 94 168 77 q 106 114 131 114 q 62 94 81 114 q 45 52 45 77 "},"\"":{"ha":302,"x_min":54,"x_max":243,"o":"m 54 985 q 65 908 54 961 q 87 836 78 850 q 110 908 97 850 q 119 985 119 962 q 89 1014 119 1014 q 54 985 54 1014 m 178 985 q 210 836 178 918 q 232 908 221 850 q 243 985 243 962 q 212 1014 243 1014 q 178 985 178 1014 "},"<":{"ha":431,"x_min":1,"x_max":357,"o":"m 336 625 l 236 610 q 150 460 216 526 q 1 367 86 396 q 268 114 224 228 l 357 136 q 131 376 315 244 q 260 478 201 406 q 336 625 313 546 "},">":{"ha":431,"x_min":62,"x_max":419,"o":"m 83 118 l 183 132 q 271 283 203 215 q 419 376 335 347 q 153 629 197 515 l 62 607 q 289 366 104 497 q 161 264 220 338 q 83 118 107 196 "},"?":{"ha":602,"x_min":16,"x_max":550,"o":"m 298 304 q 364 400 298 353 q 485 492 468 472 q 550 667 550 561 q 461 864 550 786 q 254 936 375 936 q 86 888 150 936 q 16 732 16 832 q 52 646 16 700 q 118 586 87 589 l 122 587 q 92 694 92 657 q 135 843 92 781 q 264 913 182 913 q 399 835 343 913 q 449 682 449 762 q 376 478 449 571 q 243 339 372 472 q 174 208 174 268 q 174 205 174 207 l 180 196 q 214 207 192 197 q 254 216 236 216 q 300 207 269 216 q 345 197 329 197 q 370 205 364 197 q 332 233 350 221 q 298 304 298 261 m 191 60 q 210 11 191 32 q 260 -8 231 -8 q 309 11 288 -8 q 328 60 328 32 q 309 110 328 89 q 260 129 288 129 q 210 110 231 129 q 191 60 191 89 "}," ":{"ha":555,"x_min":0,"x_max":0,"o":""}}}
